<?xml version="1.0" encoding="UTF-8" standalone="no"?>
<!DOCTYPE svg PUBLIC "-//W3C//DTD SVG 1.1//EN"
 "http://www.w3.org/Graphics/SVG/1.1/DTD/svg11.dtd">
<!-- Generated by graphviz version 2.47.0 (20210316.0004)
 -->
<!-- Title: dependencies Pages: 1 -->
<svg width="821pt" height="284pt"
 viewBox="0.00 0.00 821.00 284.00" xmlns="http://www.w3.org/2000/svg" xmlns:xlink="http://www.w3.org/1999/xlink">
<g id="graph0" class="graph" transform="scale(1 1) rotate(0) translate(4 280)">
<title>dependencies</title>
<polygon fill="white" stroke="transparent" points="-4,4 -4,-280 817,-280 817,4 -4,4"/>
<text text-anchor="start" x="385.51" y="-42.4" font-family="sans-serif" font-weight="bold" font-size="14.00">Legend</text>
<polygon fill="#ffffb3" stroke="transparent" points="172.5,-10 172.5,-30 192.5,-30 192.5,-10 172.5,-10"/>
<text text-anchor="start" x="196.13" y="-15.4" font-family="sans-serif" font-size="14.00"> &#160;Declarations</text>
<polygon fill="#8dd3c7" stroke="transparent" points="285.5,-10 285.5,-30 305.5,-30 305.5,-10 285.5,-10"/>
<text text-anchor="start" x="309.23" y="-15.4" font-family="sans-serif" font-size="14.00"> &#160;Module</text>
<polygon fill="#80b1d3" stroke="transparent" points="371.5,-10 371.5,-30 391.5,-30 391.5,-10 371.5,-10"/>
<text text-anchor="start" x="395.28" y="-15.4" font-family="sans-serif" font-size="14.00"> &#160;Bootstrap</text>
<polygon fill="#fdb462" stroke="transparent" points="468.5,-10 468.5,-30 488.5,-30 488.5,-10 468.5,-10"/>
<text text-anchor="start" x="492.17" y="-15.4" font-family="sans-serif" font-size="14.00"> &#160;Providers</text>
<polygon fill="#fb8072" stroke="transparent" points="564.5,-10 564.5,-30 584.5,-30 584.5,-10 564.5,-10"/>
<text text-anchor="start" x="588.23" y="-15.4" font-family="sans-serif" font-size="14.00"> &#160;Exports</text>
<g id="clust1" class="cluster">
<title>cluster_CoreModule</title>
<polygon fill="none" stroke="black" stroke-dasharray="1,5" points="8,-70 8,-268 805,-268 805,-70 8,-70"/>
</g>
<g id="clust4" class="cluster">
<title>cluster_CoreModule_exports</title>
<polygon fill="none" stroke="black" points="103,-208 103,-260 710,-260 710,-208 103,-208"/>
</g>
<g id="clust6" class="cluster">
<title>cluster_CoreModule_providers</title>
<polygon fill="none" stroke="black" points="16,-78 16,-130 797,-130 797,-78 16,-78"/>
</g>
<!-- FileService  -->
<g id="node1" class="node">
<title>FileService </title>
<polygon fill="#fb8072" stroke="black" points="701.76,-252 618.24,-252 618.24,-216 701.76,-216 701.76,-252"/>
<text text-anchor="middle" x="660" y="-229.8" font-family="Times,serif" font-size="14.00">FileService </text>
</g>
<!-- FireBaseService  -->
<g id="node2" class="node">
<title>FireBaseService </title>
<polygon fill="#fb8072" stroke="black" points="600.74,-252 489.26,-252 489.26,-216 600.74,-216 600.74,-252"/>
<text text-anchor="middle" x="545" y="-229.8" font-family="Times,serif" font-size="14.00">FireBaseService </text>
</g>
<!-- LocalizationService  -->
<g id="node3" class="node">
<title>LocalizationService </title>
<polygon fill="#fb8072" stroke="black" points="471.95,-252 340.05,-252 340.05,-216 471.95,-216 471.95,-252"/>
<text text-anchor="middle" x="406" y="-229.8" font-family="Times,serif" font-size="14.00">LocalizationService </text>
</g>
<!-- MailsService  -->
<g id="node4" class="node">
<title>MailsService </title>
<polygon fill="#fb8072" stroke="black" points="322.86,-252 229.14,-252 229.14,-216 322.86,-216 322.86,-252"/>
<text text-anchor="middle" x="276" y="-229.8" font-family="Times,serif" font-size="14.00">MailsService </text>
</g>
<!-- PrismaService  -->
<g id="node5" class="node">
<title>PrismaService </title>
<polygon fill="#fb8072" stroke="black" points="211.36,-252 110.64,-252 110.64,-216 211.36,-216 211.36,-252"/>
<text text-anchor="middle" x="161" y="-229.8" font-family="Times,serif" font-size="14.00">PrismaService </text>
</g>
<!-- CoreModule -->
<g id="node6" class="node">
<title>CoreModule</title>
<polygon fill="#8dd3c7" stroke="black" points="449.26,-187 446.26,-191 425.26,-191 422.26,-187 362.74,-187 362.74,-151 449.26,-151 449.26,-187"/>
<text text-anchor="middle" x="406" y="-164.8" font-family="Times,serif" font-size="14.00">CoreModule</text>
</g>
<!-- CoreModule&#45;&gt;FileService  -->
<g id="edge1" class="edge">
<title>CoreModule&#45;&gt;FileService </title>
<path fill="none" stroke="black" stroke-dasharray="5,2" d="M449.44,-173C517.06,-173 639.84,-173 639.84,-173 639.84,-173 639.84,-205.7 639.84,-205.7"/>
<polygon fill="black" stroke="black" points="636.34,-205.7 639.84,-215.7 643.34,-205.7 636.34,-205.7"/>
</g>
<!-- CoreModule&#45;&gt;FireBaseService  -->
<g id="edge2" class="edge">
<title>CoreModule&#45;&gt;FireBaseService </title>
<path fill="none" stroke="black" stroke-dasharray="5,2" d="M449.32,-180C475.35,-180 503.47,-180 503.47,-180 503.47,-180 503.47,-205.72 503.47,-205.72"/>
<polygon fill="black" stroke="black" points="499.97,-205.72 503.47,-215.72 506.97,-205.72 499.97,-205.72"/>
</g>
<!-- CoreModule&#45;&gt;LocalizationService  -->
<g id="edge3" class="edge">
<title>CoreModule&#45;&gt;LocalizationService </title>
<path fill="none" stroke="black" stroke-dasharray="5,2" d="M406,-187.11C406,-187.11 406,-205.99 406,-205.99"/>
<polygon fill="black" stroke="black" points="402.5,-205.99 406,-215.99 409.5,-205.99 402.5,-205.99"/>
</g>
<!-- CoreModule&#45;&gt;MailsService  -->
<g id="edge4" class="edge">
<title>CoreModule&#45;&gt;MailsService </title>
<path fill="none" stroke="black" stroke-dasharray="5,2" d="M362.55,-180C336.68,-180 308.86,-180 308.86,-180 308.86,-180 308.86,-205.72 308.86,-205.72"/>
<polygon fill="black" stroke="black" points="305.36,-205.72 308.86,-215.72 312.36,-205.72 305.36,-205.72"/>
</g>
<!-- CoreModule&#45;&gt;PrismaService  -->
<g id="edge5" class="edge">
<title>CoreModule&#45;&gt;PrismaService </title>
<path fill="none" stroke="black" stroke-dasharray="5,2" d="M362.5,-173C300.36,-173 193.6,-173 193.6,-173 193.6,-173 193.6,-205.7 193.6,-205.7"/>
<polygon fill="black" stroke="black" points="190.1,-205.7 193.6,-215.7 197.1,-205.7 190.1,-205.7"/>
</g>
<!-- FileService -->
<g id="node7" class="node">
<title>FileService</title>
<ellipse fill="#fdb462" stroke="black" cx="734" cy="-104" rx="55.03" ry="18"/>
<text text-anchor="middle" x="734" y="-99.8" font-family="Times,serif" font-size="14.00">FileService</text>
</g>
<!-- FileService&#45;&gt;CoreModule -->
<g id="edge6" class="edge">
<title>FileService&#45;&gt;CoreModule</title>
<path fill="none" stroke="black" d="M690.31,-115.08C690.31,-132.92 690.31,-166 690.31,-166 690.31,-166 459.49,-166 459.49,-166"/>
<polygon fill="black" stroke="black" points="459.49,-162.5 449.49,-166 459.49,-169.5 459.49,-162.5"/>
</g>
<!-- FireBaseService -->
<g id="node8" class="node">
<title>FireBaseService</title>
<ellipse fill="#fdb462" stroke="black" cx="587" cy="-104" rx="74.13" ry="18"/>
<text text-anchor="middle" x="587" y="-99.8" font-family="Times,serif" font-size="14.00">FireBaseService</text>
</g>
<!-- FireBaseService&#45;&gt;CoreModule -->
<g id="edge7" class="edge">
<title>FireBaseService&#45;&gt;CoreModule</title>
<path fill="none" stroke="black" d="M556.65,-120.5C556.65,-136.7 556.65,-159 556.65,-159 556.65,-159 459.57,-159 459.57,-159"/>
<polygon fill="black" stroke="black" points="459.57,-155.5 449.57,-159 459.57,-162.5 459.57,-155.5"/>
</g>
<!-- LocalizationService -->
<g id="node9" class="node">
<title>LocalizationService</title>
<ellipse fill="#fdb462" stroke="black" cx="406" cy="-104" rx="88.02" ry="18"/>
<text text-anchor="middle" x="406" y="-99.8" font-family="Times,serif" font-size="14.00">LocalizationService</text>
</g>
<!-- LocalizationService&#45;&gt;CoreModule -->
<g id="edge8" class="edge">
<title>LocalizationService&#45;&gt;CoreModule</title>
<path fill="none" stroke="black" d="M406,-122.11C406,-122.11 406,-140.99 406,-140.99"/>
<polygon fill="black" stroke="black" points="402.5,-140.99 406,-150.99 409.5,-140.99 402.5,-140.99"/>
</g>
<!-- MailsService -->
<g id="node10" class="node">
<title>MailsService</title>
<ellipse fill="#fdb462" stroke="black" cx="238" cy="-104" rx="61.97" ry="18"/>
<text text-anchor="middle" x="238" y="-99.8" font-family="Times,serif" font-size="14.00">MailsService</text>
</g>
<!-- MailsService&#45;&gt;CoreModule -->
<g id="edge9" class="edge">
<title>MailsService&#45;&gt;CoreModule</title>
<path fill="none" stroke="black" d="M264.65,-120.5C264.65,-136.7 264.65,-159 264.65,-159 264.65,-159 352.44,-159 352.44,-159"/>
<polygon fill="black" stroke="black" points="352.44,-162.5 362.44,-159 352.44,-155.5 352.44,-162.5"/>
</g>
<!-- PrismaService -->
<g id="node11" class="node">
<title>PrismaService</title>
<ellipse fill="#fdb462" stroke="black" cx="91" cy="-104" rx="66.63" ry="18"/>
<text text-anchor="middle" x="91" y="-99.8" font-family="Times,serif" font-size="14.00">PrismaService</text>
</g>
<!-- PrismaService&#45;&gt;CoreModule -->
<g id="edge10" class="edge">
<title>PrismaService&#45;&gt;CoreModule</title>
<path fill="none" stroke="black" d="M134.32,-117.76C134.32,-136.03 134.32,-166 134.32,-166 134.32,-166 352.65,-166 352.65,-166"/>
<polygon fill="black" stroke="black" points="352.65,-169.5 362.65,-166 352.65,-162.5 352.65,-169.5"/>
</g>
</g>
</svg>
