<?xml version="1.0" encoding="UTF-8" standalone="no"?>
<!DOCTYPE svg PUBLIC "-//W3C//DTD SVG 1.1//EN"
 "http://www.w3.org/Graphics/SVG/1.1/DTD/svg11.dtd">
<!-- Generated by graphviz version 2.47.0 (20210316.0004)
 -->
<!-- Title: dependencies Pages: 1 -->
<svg width="504pt" height="284pt"
 viewBox="0.00 0.00 504.00 284.00" xmlns="http://www.w3.org/2000/svg" xmlns:xlink="http://www.w3.org/1999/xlink">
<g id="graph0" class="graph" transform="scale(1 1) rotate(0) translate(4 280)">
<title>dependencies</title>
<polygon fill="white" stroke="transparent" points="-4,4 -4,-280 500,-280 500,4 -4,4"/>
<text text-anchor="start" x="227.01" y="-42.4" font-family="sans-serif" font-weight="bold" font-size="14.00">Legend</text>
<polygon fill="#ffffb3" stroke="transparent" points="14,-10 14,-30 34,-30 34,-10 14,-10"/>
<text text-anchor="start" x="37.63" y="-15.4" font-family="sans-serif" font-size="14.00"> &#160;Declarations</text>
<polygon fill="#8dd3c7" stroke="transparent" points="127,-10 127,-30 147,-30 147,-10 127,-10"/>
<text text-anchor="start" x="150.73" y="-15.4" font-family="sans-serif" font-size="14.00"> &#160;Module</text>
<polygon fill="#80b1d3" stroke="transparent" points="213,-10 213,-30 233,-30 233,-10 213,-10"/>
<text text-anchor="start" x="236.78" y="-15.4" font-family="sans-serif" font-size="14.00"> &#160;Bootstrap</text>
<polygon fill="#fdb462" stroke="transparent" points="310,-10 310,-30 330,-30 330,-10 310,-10"/>
<text text-anchor="start" x="333.67" y="-15.4" font-family="sans-serif" font-size="14.00"> &#160;Providers</text>
<polygon fill="#fb8072" stroke="transparent" points="406,-10 406,-30 426,-30 426,-10 406,-10"/>
<text text-anchor="start" x="429.73" y="-15.4" font-family="sans-serif" font-size="14.00"> &#160;Exports</text>
<g id="clust1" class="cluster">
<title>cluster_CoreModule</title>
<polygon fill="none" stroke="black" stroke-dasharray="1,5" points="38.5,-70 38.5,-268 457.5,-268 457.5,-70 38.5,-70"/>
</g>
<g id="clust4" class="cluster">
<title>cluster_CoreModule_exports</title>
<polygon fill="none" stroke="black" points="95.5,-208 95.5,-260 412.5,-260 412.5,-208 95.5,-208"/>
</g>
<g id="clust6" class="cluster">
<title>cluster_CoreModule_providers</title>
<polygon fill="none" stroke="black" points="46.5,-78 46.5,-130 449.5,-130 449.5,-78 46.5,-78"/>
</g>
<!-- FireBase  -->
<g id="node1" class="node">
<title>FireBase </title>
<polygon fill="#fb8072" stroke="black" points="404.26,-252 334.74,-252 334.74,-216 404.26,-216 404.26,-252"/>
<text text-anchor="middle" x="369.5" y="-229.8" font-family="Times,serif" font-size="14.00">FireBase </text>
</g>
<!-- MailManager  -->
<g id="node2" class="node">
<title>MailManager </title>
<polygon fill="#fb8072" stroke="black" points="317.19,-252 221.81,-252 221.81,-216 317.19,-216 317.19,-252"/>
<text text-anchor="middle" x="269.5" y="-229.8" font-family="Times,serif" font-size="14.00">MailManager </text>
</g>
<!-- PrismaService  -->
<g id="node3" class="node">
<title>PrismaService </title>
<polygon fill="#fb8072" stroke="black" points="203.86,-252 103.14,-252 103.14,-216 203.86,-216 203.86,-252"/>
<text text-anchor="middle" x="153.5" y="-229.8" font-family="Times,serif" font-size="14.00">PrismaService </text>
</g>
<!-- CoreModule -->
<g id="node4" class="node">
<title>CoreModule</title>
<polygon fill="#8dd3c7" stroke="black" points="312.76,-187 309.76,-191 288.76,-191 285.76,-187 226.24,-187 226.24,-151 312.76,-151 312.76,-187"/>
<text text-anchor="middle" x="269.5" y="-164.8" font-family="Times,serif" font-size="14.00">CoreModule</text>
</g>
<!-- CoreModule&#45;&gt;FireBase  -->
<g id="edge1" class="edge">
<title>CoreModule&#45;&gt;FireBase </title>
<path fill="none" stroke="black" stroke-dasharray="5,2" d="M313.11,-175C328.94,-175 343.01,-175 343.01,-175 343.01,-175 343.01,-205.98 343.01,-205.98"/>
<polygon fill="black" stroke="black" points="339.51,-205.98 343.01,-215.98 346.51,-205.98 339.51,-205.98"/>
</g>
<!-- CoreModule&#45;&gt;MailManager  -->
<g id="edge2" class="edge">
<title>CoreModule&#45;&gt;MailManager </title>
<path fill="none" stroke="black" stroke-dasharray="5,2" d="M269.5,-187.11C269.5,-187.11 269.5,-205.99 269.5,-205.99"/>
<polygon fill="black" stroke="black" points="266,-205.99 269.5,-215.99 273,-205.99 266,-205.99"/>
</g>
<!-- CoreModule&#45;&gt;PrismaService  -->
<g id="edge3" class="edge">
<title>CoreModule&#45;&gt;PrismaService </title>
<path fill="none" stroke="black" stroke-dasharray="5,2" d="M225.89,-175C210.07,-175 196,-175 196,-175 196,-175 196,-205.98 196,-205.98"/>
<polygon fill="black" stroke="black" points="192.5,-205.98 196,-215.98 199.5,-205.98 192.5,-205.98"/>
</g>
<!-- FireBase -->
<g id="node5" class="node">
<title>FireBase</title>
<ellipse fill="#fdb462" stroke="black" cx="396.5" cy="-104" rx="45.22" ry="18"/>
<text text-anchor="middle" x="396.5" y="-99.8" font-family="Times,serif" font-size="14.00">FireBase</text>
</g>
<!-- FireBase&#45;&gt;CoreModule -->
<g id="edge4" class="edge">
<title>FireBase&#45;&gt;CoreModule</title>
<path fill="none" stroke="black" d="M377.64,-120.43C377.64,-137.89 377.64,-163 377.64,-163 377.64,-163 322.86,-163 322.86,-163"/>
<polygon fill="black" stroke="black" points="322.86,-159.5 312.86,-163 322.86,-166.5 322.86,-159.5"/>
</g>
<!-- MailManager -->
<g id="node6" class="node">
<title>MailManager</title>
<ellipse fill="#fdb462" stroke="black" cx="269.5" cy="-104" rx="63.68" ry="18"/>
<text text-anchor="middle" x="269.5" y="-99.8" font-family="Times,serif" font-size="14.00">MailManager</text>
</g>
<!-- MailManager&#45;&gt;CoreModule -->
<g id="edge5" class="edge">
<title>MailManager&#45;&gt;CoreModule</title>
<path fill="none" stroke="black" d="M269.5,-122.11C269.5,-122.11 269.5,-140.99 269.5,-140.99"/>
<polygon fill="black" stroke="black" points="266,-140.99 269.5,-150.99 273,-140.99 266,-140.99"/>
</g>
<!-- PrismaService -->
<g id="node7" class="node">
<title>PrismaService</title>
<ellipse fill="#fdb462" stroke="black" cx="121.5" cy="-104" rx="66.63" ry="18"/>
<text text-anchor="middle" x="121.5" y="-99.8" font-family="Times,serif" font-size="14.00">PrismaService</text>
</g>
<!-- PrismaService&#45;&gt;CoreModule -->
<g id="edge6" class="edge">
<title>PrismaService&#45;&gt;CoreModule</title>
<path fill="none" stroke="black" d="M145.82,-121.07C145.82,-138.49 145.82,-163 145.82,-163 145.82,-163 215.89,-163 215.89,-163"/>
<polygon fill="black" stroke="black" points="215.89,-166.5 225.89,-163 215.89,-159.5 215.89,-166.5"/>
</g>
</g>
</svg>
