<?xml version="1.0" encoding="UTF-8" standalone="no"?>
<!DOCTYPE svg PUBLIC "-//W3C//DTD SVG 1.1//EN"
 "http://www.w3.org/Graphics/SVG/1.1/DTD/svg11.dtd">
<!-- Generated by graphviz version 2.47.0 (20210316.0004)
 -->
<!-- Title: dependencies Pages: 1 -->
<svg width="736pt" height="211pt"
 viewBox="0.00 0.00 736.00 211.00" xmlns="http://www.w3.org/2000/svg" xmlns:xlink="http://www.w3.org/1999/xlink">
<g id="graph0" class="graph" transform="scale(1 1) rotate(0) translate(4 207)">
<title>dependencies</title>
<polygon fill="white" stroke="transparent" points="-4,4 -4,-207 732,-207 732,4 -4,4"/>
<text text-anchor="start" x="343.01" y="-42.4" font-family="sans-serif" font-weight="bold" font-size="14.00">Legend</text>
<polygon fill="#ffffb3" stroke="transparent" points="130,-10 130,-30 150,-30 150,-10 130,-10"/>
<text text-anchor="start" x="153.63" y="-15.4" font-family="sans-serif" font-size="14.00"> &#160;Declarations</text>
<polygon fill="#8dd3c7" stroke="transparent" points="243,-10 243,-30 263,-30 263,-10 243,-10"/>
<text text-anchor="start" x="266.73" y="-15.4" font-family="sans-serif" font-size="14.00"> &#160;Module</text>
<polygon fill="#80b1d3" stroke="transparent" points="329,-10 329,-30 349,-30 349,-10 329,-10"/>
<text text-anchor="start" x="352.78" y="-15.4" font-family="sans-serif" font-size="14.00"> &#160;Bootstrap</text>
<polygon fill="#fdb462" stroke="transparent" points="426,-10 426,-30 446,-30 446,-10 426,-10"/>
<text text-anchor="start" x="449.67" y="-15.4" font-family="sans-serif" font-size="14.00"> &#160;Providers</text>
<polygon fill="#fb8072" stroke="transparent" points="522,-10 522,-30 542,-30 542,-10 522,-10"/>
<text text-anchor="start" x="545.73" y="-15.4" font-family="sans-serif" font-size="14.00"> &#160;Exports</text>
<g id="clust1" class="cluster">
<title>cluster_ApplicationModule</title>
<polygon fill="none" stroke="black" stroke-dasharray="1,5" points="8,-70 8,-195 720,-195 720,-70 8,-70"/>
</g>
<g id="clust3" class="cluster">
<title>cluster_ApplicationModule_imports</title>
<polygon fill="none" stroke="black" points="16,-78 16,-130 712,-130 712,-78 16,-78"/>
</g>
<!-- AppLoggerModule -->
<g id="node1" class="node">
<title>AppLoggerModule</title>
<polygon fill="#8dd3c7" stroke="black" points="704.08,-122 701.08,-126 680.08,-126 677.08,-122 579.92,-122 579.92,-86 704.08,-86 704.08,-122"/>
<text text-anchor="middle" x="642" y="-99.8" font-family="Times,serif" font-size="14.00">AppLoggerModule</text>
</g>
<!-- ApplicationModule -->
<g id="node7" class="node">
<title>ApplicationModule</title>
<polygon fill="#8dd3c7" stroke="black" points="413.65,-187 410.65,-191 389.65,-191 386.65,-187 288.35,-187 288.35,-151 413.65,-151 413.65,-187"/>
<text text-anchor="middle" x="351" y="-164.8" font-family="Times,serif" font-size="14.00">ApplicationModule</text>
</g>
<!-- AppLoggerModule&#45;&gt;ApplicationModule -->
<g id="edge1" class="edge">
<title>AppLoggerModule&#45;&gt;ApplicationModule</title>
<path fill="none" stroke="black" d="M642,-122.28C642,-143.32 642,-175 642,-175 642,-175 423.78,-175 423.78,-175"/>
<polygon fill="black" stroke="black" points="423.78,-171.5 413.78,-175 423.78,-178.5 423.78,-171.5"/>
</g>
<!-- DevModule -->
<g id="node2" class="node">
<title>DevModule</title>
<polygon fill="#8dd3c7" stroke="black" points="562.37,-122 559.37,-126 538.37,-126 535.37,-122 479.63,-122 479.63,-86 562.37,-86 562.37,-122"/>
<text text-anchor="middle" x="521" y="-99.8" font-family="Times,serif" font-size="14.00">DevModule</text>
</g>
<!-- DevModule&#45;&gt;ApplicationModule -->
<g id="edge2" class="edge">
<title>DevModule&#45;&gt;ApplicationModule</title>
<path fill="none" stroke="black" d="M521,-122.02C521,-139.37 521,-163 521,-163 521,-163 423.82,-163 423.82,-163"/>
<polygon fill="black" stroke="black" points="423.82,-159.5 413.82,-163 423.82,-166.5 423.82,-159.5"/>
</g>
<!-- ListingModule -->
<g id="node3" class="node">
<title>ListingModule</title>
<polygon fill="#8dd3c7" stroke="black" points="461.72,-122 458.72,-126 437.72,-126 434.72,-122 362.28,-122 362.28,-86 461.72,-86 461.72,-122"/>
<text text-anchor="middle" x="412" y="-99.8" font-family="Times,serif" font-size="14.00">ListingModule</text>
</g>
<!-- ListingModule&#45;&gt;ApplicationModule -->
<g id="edge3" class="edge">
<title>ListingModule&#45;&gt;ApplicationModule</title>
<path fill="none" stroke="black" d="M388.11,-122.11C388.11,-122.11 388.11,-140.99 388.11,-140.99"/>
<polygon fill="black" stroke="black" points="384.61,-140.99 388.11,-150.99 391.61,-140.99 384.61,-140.99"/>
</g>
<!-- LookupsModule -->
<g id="node4" class="node">
<title>LookupsModule</title>
<polygon fill="#8dd3c7" stroke="black" points="344.05,-122 341.05,-126 320.05,-126 317.05,-122 235.95,-122 235.95,-86 344.05,-86 344.05,-122"/>
<text text-anchor="middle" x="290" y="-99.8" font-family="Times,serif" font-size="14.00">LookupsModule</text>
</g>
<!-- LookupsModule&#45;&gt;ApplicationModule -->
<g id="edge4" class="edge">
<title>LookupsModule&#45;&gt;ApplicationModule</title>
<path fill="none" stroke="black" d="M316.22,-122.11C316.22,-122.11 316.22,-140.99 316.22,-140.99"/>
<polygon fill="black" stroke="black" points="312.72,-140.99 316.22,-150.99 319.72,-140.99 312.72,-140.99"/>
</g>
<!-- StoryModule -->
<g id="node5" class="node">
<title>StoryModule</title>
<polygon fill="#8dd3c7" stroke="black" points="217.88,-122 214.88,-126 193.88,-126 190.88,-122 128.12,-122 128.12,-86 217.88,-86 217.88,-122"/>
<text text-anchor="middle" x="173" y="-99.8" font-family="Times,serif" font-size="14.00">StoryModule</text>
</g>
<!-- StoryModule&#45;&gt;ApplicationModule -->
<g id="edge5" class="edge">
<title>StoryModule&#45;&gt;ApplicationModule</title>
<path fill="none" stroke="black" d="M173,-122.02C173,-139.37 173,-163 173,-163 173,-163 278.24,-163 278.24,-163"/>
<polygon fill="black" stroke="black" points="278.24,-166.5 288.24,-163 278.24,-159.5 278.24,-166.5"/>
</g>
<!-- UserModule -->
<g id="node6" class="node">
<title>UserModule</title>
<polygon fill="#8dd3c7" stroke="black" points="109.98,-122 106.98,-126 85.98,-126 82.98,-122 24.02,-122 24.02,-86 109.98,-86 109.98,-122"/>
<text text-anchor="middle" x="67" y="-99.8" font-family="Times,serif" font-size="14.00">UserModule</text>
</g>
<!-- UserModule&#45;&gt;ApplicationModule -->
<g id="edge6" class="edge">
<title>UserModule&#45;&gt;ApplicationModule</title>
<path fill="none" stroke="black" d="M67,-122.28C67,-143.32 67,-175 67,-175 67,-175 278.32,-175 278.32,-175"/>
<polygon fill="black" stroke="black" points="278.32,-178.5 288.32,-175 278.32,-171.5 278.32,-178.5"/>
</g>
</g>
</svg>
