<?xml version="1.0" encoding="UTF-8" standalone="no"?>
<!DOCTYPE svg PUBLIC "-//W3C//DTD SVG 1.1//EN"
 "http://www.w3.org/Graphics/SVG/1.1/DTD/svg11.dtd">
<!-- Generated by graphviz version 2.47.0 (20210316.0004)
 -->
<!-- Title: dependencies Pages: 1 -->
<svg width="594pt" height="211pt"
 viewBox="0.00 0.00 594.00 211.00" xmlns="http://www.w3.org/2000/svg" xmlns:xlink="http://www.w3.org/1999/xlink">
<g id="graph0" class="graph" transform="scale(1 1) rotate(0) translate(4 207)">
<title>dependencies</title>
<polygon fill="white" stroke="transparent" points="-4,4 -4,-207 590,-207 590,4 -4,4"/>
<text text-anchor="start" x="272.01" y="-42.4" font-family="sans-serif" font-weight="bold" font-size="14.00">Legend</text>
<polygon fill="#ffffb3" stroke="transparent" points="59,-10 59,-30 79,-30 79,-10 59,-10"/>
<text text-anchor="start" x="82.63" y="-15.4" font-family="sans-serif" font-size="14.00"> &#160;Declarations</text>
<polygon fill="#8dd3c7" stroke="transparent" points="172,-10 172,-30 192,-30 192,-10 172,-10"/>
<text text-anchor="start" x="195.73" y="-15.4" font-family="sans-serif" font-size="14.00"> &#160;Module</text>
<polygon fill="#80b1d3" stroke="transparent" points="258,-10 258,-30 278,-30 278,-10 258,-10"/>
<text text-anchor="start" x="281.78" y="-15.4" font-family="sans-serif" font-size="14.00"> &#160;Bootstrap</text>
<polygon fill="#fdb462" stroke="transparent" points="355,-10 355,-30 375,-30 375,-10 355,-10"/>
<text text-anchor="start" x="378.67" y="-15.4" font-family="sans-serif" font-size="14.00"> &#160;Providers</text>
<polygon fill="#fb8072" stroke="transparent" points="451,-10 451,-30 471,-30 471,-10 451,-10"/>
<text text-anchor="start" x="474.73" y="-15.4" font-family="sans-serif" font-size="14.00"> &#160;Exports</text>
<g id="clust1" class="cluster">
<title>cluster_ApplicationModule</title>
<polygon fill="none" stroke="black" stroke-dasharray="1,5" points="8,-70 8,-195 578,-195 578,-70 8,-70"/>
</g>
<g id="clust3" class="cluster">
<title>cluster_ApplicationModule_imports</title>
<polygon fill="none" stroke="black" points="16,-78 16,-130 570,-130 570,-78 16,-78"/>
</g>
<!-- DevModule -->
<g id="node1" class="node">
<title>DevModule</title>
<polygon fill="#8dd3c7" stroke="black" points="562.37,-122 559.37,-126 538.37,-126 535.37,-122 479.63,-122 479.63,-86 562.37,-86 562.37,-122"/>
<text text-anchor="middle" x="521" y="-99.8" font-family="Times,serif" font-size="14.00">DevModule</text>
</g>
<!-- ApplicationModule -->
<g id="node6" class="node">
<title>ApplicationModule</title>
<polygon fill="#8dd3c7" stroke="black" points="352.65,-187 349.65,-191 328.65,-191 325.65,-187 227.35,-187 227.35,-151 352.65,-151 352.65,-187"/>
<text text-anchor="middle" x="290" y="-164.8" font-family="Times,serif" font-size="14.00">ApplicationModule</text>
</g>
<!-- DevModule&#45;&gt;ApplicationModule -->
<g id="edge1" class="edge">
<title>DevModule&#45;&gt;ApplicationModule</title>
<path fill="none" stroke="black" d="M521,-122.11C521,-141.34 521,-169 521,-169 521,-169 362.82,-169 362.82,-169"/>
<polygon fill="black" stroke="black" points="362.82,-165.5 352.82,-169 362.82,-172.5 362.82,-165.5"/>
</g>
<!-- ListingModule -->
<g id="node2" class="node">
<title>ListingModule</title>
<polygon fill="#8dd3c7" stroke="black" points="461.72,-122 458.72,-126 437.72,-126 434.72,-122 362.28,-122 362.28,-86 461.72,-86 461.72,-122"/>
<text text-anchor="middle" x="412" y="-99.8" font-family="Times,serif" font-size="14.00">ListingModule</text>
</g>
<!-- ListingModule&#45;&gt;ApplicationModule -->
<g id="edge2" class="edge">
<title>ListingModule&#45;&gt;ApplicationModule</title>
<path fill="none" stroke="black" d="M362.32,-104C354.29,-104 348.55,-104 348.55,-104 348.55,-104 348.55,-140.89 348.55,-140.89"/>
<polygon fill="black" stroke="black" points="345.05,-140.89 348.55,-150.89 352.05,-140.89 345.05,-140.89"/>
</g>
<!-- LookupsModule -->
<g id="node3" class="node">
<title>LookupsModule</title>
<polygon fill="#8dd3c7" stroke="black" points="344.05,-122 341.05,-126 320.05,-126 317.05,-122 235.95,-122 235.95,-86 344.05,-86 344.05,-122"/>
<text text-anchor="middle" x="290" y="-99.8" font-family="Times,serif" font-size="14.00">LookupsModule</text>
</g>
<!-- LookupsModule&#45;&gt;ApplicationModule -->
<g id="edge3" class="edge">
<title>LookupsModule&#45;&gt;ApplicationModule</title>
<path fill="none" stroke="black" d="M290,-122.11C290,-122.11 290,-140.99 290,-140.99"/>
<polygon fill="black" stroke="black" points="286.5,-140.99 290,-150.99 293.5,-140.99 286.5,-140.99"/>
</g>
<!-- StoryModule -->
<g id="node4" class="node">
<title>StoryModule</title>
<polygon fill="#8dd3c7" stroke="black" points="217.88,-122 214.88,-126 193.88,-126 190.88,-122 128.12,-122 128.12,-86 217.88,-86 217.88,-122"/>
<text text-anchor="middle" x="173" y="-99.8" font-family="Times,serif" font-size="14.00">StoryModule</text>
</g>
<!-- StoryModule&#45;&gt;ApplicationModule -->
<g id="edge4" class="edge">
<title>StoryModule&#45;&gt;ApplicationModule</title>
<path fill="none" stroke="black" d="M217.89,-104C225.74,-104 231.45,-104 231.45,-104 231.45,-104 231.45,-140.89 231.45,-140.89"/>
<polygon fill="black" stroke="black" points="227.95,-140.89 231.45,-150.89 234.95,-140.89 227.95,-140.89"/>
</g>
<!-- UserModule -->
<g id="node5" class="node">
<title>UserModule</title>
<polygon fill="#8dd3c7" stroke="black" points="109.98,-122 106.98,-126 85.98,-126 82.98,-122 24.02,-122 24.02,-86 109.98,-86 109.98,-122"/>
<text text-anchor="middle" x="67" y="-99.8" font-family="Times,serif" font-size="14.00">UserModule</text>
</g>
<!-- UserModule&#45;&gt;ApplicationModule -->
<g id="edge5" class="edge">
<title>UserModule&#45;&gt;ApplicationModule</title>
<path fill="none" stroke="black" d="M67,-122.11C67,-141.34 67,-169 67,-169 67,-169 217.29,-169 217.29,-169"/>
<polygon fill="black" stroke="black" points="217.29,-172.5 227.29,-169 217.29,-165.5 217.29,-172.5"/>
</g>
</g>
</svg>
