<?xml version="1.0" encoding="UTF-8" standalone="no"?>
<!DOCTYPE svg PUBLIC "-//W3C//DTD SVG 1.1//EN"
 "http://www.w3.org/Graphics/SVG/1.1/DTD/svg11.dtd">
<!-- Generated by graphviz version 2.47.0 (20210316.0004)
 -->
<!-- Title: dependencies Pages: 1 -->
<svg width="673pt" height="284pt"
 viewBox="0.00 0.00 673.00 284.00" xmlns="http://www.w3.org/2000/svg" xmlns:xlink="http://www.w3.org/1999/xlink">
<g id="graph0" class="graph" transform="scale(1 1) rotate(0) translate(4 280)">
<title>dependencies</title>
<polygon fill="white" stroke="transparent" points="-4,4 -4,-280 669,-280 669,4 -4,4"/>
<text text-anchor="start" x="311.51" y="-42.4" font-family="sans-serif" font-weight="bold" font-size="14.00">Legend</text>
<polygon fill="#ffffb3" stroke="transparent" points="98.5,-10 98.5,-30 118.5,-30 118.5,-10 98.5,-10"/>
<text text-anchor="start" x="122.13" y="-15.4" font-family="sans-serif" font-size="14.00"> &#160;Declarations</text>
<polygon fill="#8dd3c7" stroke="transparent" points="211.5,-10 211.5,-30 231.5,-30 231.5,-10 211.5,-10"/>
<text text-anchor="start" x="235.23" y="-15.4" font-family="sans-serif" font-size="14.00"> &#160;Module</text>
<polygon fill="#80b1d3" stroke="transparent" points="297.5,-10 297.5,-30 317.5,-30 317.5,-10 297.5,-10"/>
<text text-anchor="start" x="321.28" y="-15.4" font-family="sans-serif" font-size="14.00"> &#160;Bootstrap</text>
<polygon fill="#fdb462" stroke="transparent" points="394.5,-10 394.5,-30 414.5,-30 414.5,-10 394.5,-10"/>
<text text-anchor="start" x="418.17" y="-15.4" font-family="sans-serif" font-size="14.00"> &#160;Providers</text>
<polygon fill="#fb8072" stroke="transparent" points="490.5,-10 490.5,-30 510.5,-30 510.5,-10 490.5,-10"/>
<text text-anchor="start" x="514.23" y="-15.4" font-family="sans-serif" font-size="14.00"> &#160;Exports</text>
<g id="clust1" class="cluster">
<title>cluster_ListingModule</title>
<polygon fill="none" stroke="black" stroke-dasharray="1,5" points="8,-70 8,-268 657,-268 657,-70 8,-70"/>
</g>
<g id="clust4" class="cluster">
<title>cluster_ListingModule_exports</title>
<polygon fill="none" stroke="black" points="239,-208 239,-260 357,-260 357,-208 239,-208"/>
</g>
<g id="clust6" class="cluster">
<title>cluster_ListingModule_providers</title>
<polygon fill="none" stroke="black" points="499,-78 499,-130 649,-130 649,-78 499,-78"/>
</g>
<g id="clust3" class="cluster">
<title>cluster_ListingModule_imports</title>
<polygon fill="none" stroke="black" points="16,-78 16,-130 491,-130 491,-78 16,-78"/>
</g>
<!-- AppLoggerModule -->
<g id="node1" class="node">
<title>AppLoggerModule</title>
<polygon fill="#8dd3c7" stroke="black" points="483.08,-122 480.08,-126 459.08,-126 456.08,-122 358.92,-122 358.92,-86 483.08,-86 483.08,-122"/>
<text text-anchor="middle" x="421" y="-99.8" font-family="Times,serif" font-size="14.00">AppLoggerModule</text>
</g>
<!-- ListingModule -->
<g id="node5" class="node">
<title>ListingModule</title>
<polygon fill="#8dd3c7" stroke="black" points="347.72,-187 344.72,-191 323.72,-191 320.72,-187 248.28,-187 248.28,-151 347.72,-151 347.72,-187"/>
<text text-anchor="middle" x="298" y="-164.8" font-family="Times,serif" font-size="14.00">ListingModule</text>
</g>
<!-- AppLoggerModule&#45;&gt;ListingModule -->
<g id="edge1" class="edge">
<title>AppLoggerModule&#45;&gt;ListingModule</title>
<path fill="none" stroke="black" d="M421,-122.02C421,-139.37 421,-163 421,-163 421,-163 357.67,-163 357.67,-163"/>
<polygon fill="black" stroke="black" points="357.67,-159.5 347.67,-163 357.67,-166.5 357.67,-159.5"/>
</g>
<!-- CoreModule -->
<g id="node2" class="node">
<title>CoreModule</title>
<polygon fill="#8dd3c7" stroke="black" points="341.26,-122 338.26,-126 317.26,-126 314.26,-122 254.74,-122 254.74,-86 341.26,-86 341.26,-122"/>
<text text-anchor="middle" x="298" y="-99.8" font-family="Times,serif" font-size="14.00">CoreModule</text>
</g>
<!-- CoreModule&#45;&gt;ListingModule -->
<g id="edge2" class="edge">
<title>CoreModule&#45;&gt;ListingModule</title>
<path fill="none" stroke="black" d="M298,-122.11C298,-122.11 298,-140.99 298,-140.99"/>
<polygon fill="black" stroke="black" points="294.5,-140.99 298,-150.99 301.5,-140.99 294.5,-140.99"/>
</g>
<!-- LookupsModule -->
<g id="node3" class="node">
<title>LookupsModule</title>
<polygon fill="#8dd3c7" stroke="black" points="236.05,-122 233.05,-126 212.05,-126 209.05,-122 127.95,-122 127.95,-86 236.05,-86 236.05,-122"/>
<text text-anchor="middle" x="182" y="-99.8" font-family="Times,serif" font-size="14.00">LookupsModule</text>
</g>
<!-- LookupsModule&#45;&gt;ListingModule -->
<g id="edge3" class="edge">
<title>LookupsModule&#45;&gt;ListingModule</title>
<path fill="none" stroke="black" d="M182,-122.02C182,-139.37 182,-163 182,-163 182,-163 238.13,-163 238.13,-163"/>
<polygon fill="black" stroke="black" points="238.13,-166.5 248.13,-163 238.13,-159.5 238.13,-166.5"/>
</g>
<!-- UserModule -->
<g id="node4" class="node">
<title>UserModule</title>
<polygon fill="#8dd3c7" stroke="black" points="109.98,-122 106.98,-126 85.98,-126 82.98,-122 24.02,-122 24.02,-86 109.98,-86 109.98,-122"/>
<text text-anchor="middle" x="67" y="-99.8" font-family="Times,serif" font-size="14.00">UserModule</text>
</g>
<!-- UserModule&#45;&gt;ListingModule -->
<g id="edge4" class="edge">
<title>UserModule&#45;&gt;ListingModule</title>
<path fill="none" stroke="black" d="M67,-122.28C67,-143.32 67,-175 67,-175 67,-175 238.16,-175 238.16,-175"/>
<polygon fill="black" stroke="black" points="238.16,-178.5 248.16,-175 238.16,-171.5 238.16,-178.5"/>
</g>
<!-- ListingService  -->
<g id="node6" class="node">
<title>ListingService </title>
<polygon fill="#fb8072" stroke="black" points="348.65,-252 247.35,-252 247.35,-216 348.65,-216 348.65,-252"/>
<text text-anchor="middle" x="298" y="-229.8" font-family="Times,serif" font-size="14.00">ListingService </text>
</g>
<!-- ListingModule&#45;&gt;ListingService  -->
<g id="edge5" class="edge">
<title>ListingModule&#45;&gt;ListingService </title>
<path fill="none" stroke="black" stroke-dasharray="5,2" d="M298,-187.11C298,-187.11 298,-205.99 298,-205.99"/>
<polygon fill="black" stroke="black" points="294.5,-205.99 298,-215.99 301.5,-205.99 294.5,-205.99"/>
</g>
<!-- ListingService -->
<g id="node7" class="node">
<title>ListingService</title>
<ellipse fill="#fdb462" stroke="black" cx="574" cy="-104" rx="67.21" ry="18"/>
<text text-anchor="middle" x="574" y="-99.8" font-family="Times,serif" font-size="14.00">ListingService</text>
</g>
<!-- ListingService&#45;&gt;ListingModule -->
<g id="edge6" class="edge">
<title>ListingService&#45;&gt;ListingModule</title>
<path fill="none" stroke="black" d="M574,-122.28C574,-143.32 574,-175 574,-175 574,-175 357.66,-175 357.66,-175"/>
<polygon fill="black" stroke="black" points="357.66,-171.5 347.66,-175 357.66,-178.5 357.66,-171.5"/>
</g>
</g>
</svg>
