<?xml version="1.0" encoding="UTF-8" standalone="no"?>
<!DOCTYPE svg PUBLIC "-//W3C//DTD SVG 1.1//EN"
 "http://www.w3.org/Graphics/SVG/1.1/DTD/svg11.dtd">
<!-- Generated by graphviz version 2.47.0 (20210316.0004)
 -->
<!-- Title: dependencies Pages: 1 -->
<svg width="639pt" height="284pt"
 viewBox="0.00 0.00 639.00 284.00" xmlns="http://www.w3.org/2000/svg" xmlns:xlink="http://www.w3.org/1999/xlink">
<g id="graph0" class="graph" transform="scale(1 1) rotate(0) translate(4 280)">
<title>dependencies</title>
<polygon fill="white" stroke="transparent" points="-4,4 -4,-280 635,-280 635,4 -4,4"/>
<text text-anchor="start" x="294.51" y="-42.4" font-family="sans-serif" font-weight="bold" font-size="14.00">Legend</text>
<polygon fill="#ffffb3" stroke="transparent" points="81.5,-10 81.5,-30 101.5,-30 101.5,-10 81.5,-10"/>
<text text-anchor="start" x="105.13" y="-15.4" font-family="sans-serif" font-size="14.00"> &#160;Declarations</text>
<polygon fill="#8dd3c7" stroke="transparent" points="194.5,-10 194.5,-30 214.5,-30 214.5,-10 194.5,-10"/>
<text text-anchor="start" x="218.23" y="-15.4" font-family="sans-serif" font-size="14.00"> &#160;Module</text>
<polygon fill="#80b1d3" stroke="transparent" points="280.5,-10 280.5,-30 300.5,-30 300.5,-10 280.5,-10"/>
<text text-anchor="start" x="304.28" y="-15.4" font-family="sans-serif" font-size="14.00"> &#160;Bootstrap</text>
<polygon fill="#fdb462" stroke="transparent" points="377.5,-10 377.5,-30 397.5,-30 397.5,-10 377.5,-10"/>
<text text-anchor="start" x="401.17" y="-15.4" font-family="sans-serif" font-size="14.00"> &#160;Providers</text>
<polygon fill="#fb8072" stroke="transparent" points="473.5,-10 473.5,-30 493.5,-30 493.5,-10 473.5,-10"/>
<text text-anchor="start" x="497.23" y="-15.4" font-family="sans-serif" font-size="14.00"> &#160;Exports</text>
<g id="clust1" class="cluster">
<title>cluster_ListingModule</title>
<polygon fill="none" stroke="black" stroke-dasharray="1,5" points="8,-70 8,-268 623,-268 623,-70 8,-70"/>
</g>
<g id="clust3" class="cluster">
<title>cluster_ListingModule_imports</title>
<polygon fill="none" stroke="black" points="174,-78 174,-130 615,-130 615,-78 174,-78"/>
</g>
<g id="clust4" class="cluster">
<title>cluster_ListingModule_exports</title>
<polygon fill="none" stroke="black" points="272,-208 272,-260 390,-260 390,-208 272,-208"/>
</g>
<g id="clust6" class="cluster">
<title>cluster_ListingModule_providers</title>
<polygon fill="none" stroke="black" points="16,-78 16,-130 166,-130 166,-78 16,-78"/>
</g>
<!-- CoreModule -->
<g id="node1" class="node">
<title>CoreModule</title>
<polygon fill="#8dd3c7" stroke="black" points="607.26,-122 604.26,-126 583.26,-126 580.26,-122 520.74,-122 520.74,-86 607.26,-86 607.26,-122"/>
<text text-anchor="middle" x="564" y="-99.8" font-family="Times,serif" font-size="14.00">CoreModule</text>
</g>
<!-- ListingModule -->
<g id="node5" class="node">
<title>ListingModule</title>
<polygon fill="#8dd3c7" stroke="black" points="380.72,-187 377.72,-191 356.72,-191 353.72,-187 281.28,-187 281.28,-151 380.72,-151 380.72,-187"/>
<text text-anchor="middle" x="331" y="-164.8" font-family="Times,serif" font-size="14.00">ListingModule</text>
</g>
<!-- CoreModule&#45;&gt;ListingModule -->
<g id="edge1" class="edge">
<title>CoreModule&#45;&gt;ListingModule</title>
<path fill="none" stroke="black" d="M564,-122.28C564,-143.32 564,-175 564,-175 564,-175 390.7,-175 390.7,-175"/>
<polygon fill="black" stroke="black" points="390.7,-171.5 380.7,-175 390.7,-178.5 390.7,-171.5"/>
</g>
<!-- LookupsModule -->
<g id="node2" class="node">
<title>LookupsModule</title>
<polygon fill="#8dd3c7" stroke="black" points="502.05,-122 499.05,-126 478.05,-126 475.05,-122 393.95,-122 393.95,-86 502.05,-86 502.05,-122"/>
<text text-anchor="middle" x="448" y="-99.8" font-family="Times,serif" font-size="14.00">LookupsModule</text>
</g>
<!-- LookupsModule&#45;&gt;ListingModule -->
<g id="edge2" class="edge">
<title>LookupsModule&#45;&gt;ListingModule</title>
<path fill="none" stroke="black" d="M448,-122.02C448,-139.37 448,-163 448,-163 448,-163 390.62,-163 390.62,-163"/>
<polygon fill="black" stroke="black" points="390.62,-159.5 380.62,-163 390.62,-166.5 390.62,-159.5"/>
</g>
<!-- StoryModule -->
<g id="node3" class="node">
<title>StoryModule</title>
<polygon fill="#8dd3c7" stroke="black" points="375.88,-122 372.88,-126 351.88,-126 348.88,-122 286.12,-122 286.12,-86 375.88,-86 375.88,-122"/>
<text text-anchor="middle" x="331" y="-99.8" font-family="Times,serif" font-size="14.00">StoryModule</text>
</g>
<!-- StoryModule&#45;&gt;ListingModule -->
<g id="edge3" class="edge">
<title>StoryModule&#45;&gt;ListingModule</title>
<path fill="none" stroke="black" d="M331,-122.11C331,-122.11 331,-140.99 331,-140.99"/>
<polygon fill="black" stroke="black" points="327.5,-140.99 331,-150.99 334.5,-140.99 327.5,-140.99"/>
</g>
<!-- UserModule -->
<g id="node4" class="node">
<title>UserModule</title>
<polygon fill="#8dd3c7" stroke="black" points="267.98,-122 264.98,-126 243.98,-126 240.98,-122 182.02,-122 182.02,-86 267.98,-86 267.98,-122"/>
<text text-anchor="middle" x="225" y="-99.8" font-family="Times,serif" font-size="14.00">UserModule</text>
</g>
<!-- UserModule&#45;&gt;ListingModule -->
<g id="edge4" class="edge">
<title>UserModule&#45;&gt;ListingModule</title>
<path fill="none" stroke="black" d="M225,-122.02C225,-139.37 225,-163 225,-163 225,-163 271.1,-163 271.1,-163"/>
<polygon fill="black" stroke="black" points="271.1,-166.5 281.1,-163 271.1,-159.5 271.1,-166.5"/>
</g>
<!-- ListingService  -->
<g id="node6" class="node">
<title>ListingService </title>
<polygon fill="#fb8072" stroke="black" points="381.65,-252 280.35,-252 280.35,-216 381.65,-216 381.65,-252"/>
<text text-anchor="middle" x="331" y="-229.8" font-family="Times,serif" font-size="14.00">ListingService </text>
</g>
<!-- ListingModule&#45;&gt;ListingService  -->
<g id="edge5" class="edge">
<title>ListingModule&#45;&gt;ListingService </title>
<path fill="none" stroke="black" stroke-dasharray="5,2" d="M331,-187.11C331,-187.11 331,-205.99 331,-205.99"/>
<polygon fill="black" stroke="black" points="327.5,-205.99 331,-215.99 334.5,-205.99 327.5,-205.99"/>
</g>
<!-- ListingService -->
<g id="node7" class="node">
<title>ListingService</title>
<ellipse fill="#fdb462" stroke="black" cx="91" cy="-104" rx="67.21" ry="18"/>
<text text-anchor="middle" x="91" y="-99.8" font-family="Times,serif" font-size="14.00">ListingService</text>
</g>
<!-- ListingService&#45;&gt;ListingModule -->
<g id="edge6" class="edge">
<title>ListingService&#45;&gt;ListingModule</title>
<path fill="none" stroke="black" d="M91,-122.28C91,-143.32 91,-175 91,-175 91,-175 271.27,-175 271.27,-175"/>
<polygon fill="black" stroke="black" points="271.27,-178.5 281.27,-175 271.27,-171.5 271.27,-178.5"/>
</g>
</g>
</svg>
