<?xml version="1.0" encoding="UTF-8" standalone="no"?>
<!DOCTYPE svg PUBLIC "-//W3C//DTD SVG 1.1//EN"
 "http://www.w3.org/Graphics/SVG/1.1/DTD/svg11.dtd">
<!-- Generated by graphviz version 2.47.0 (20210316.0004)
 -->
<!-- Title: dependencies Pages: 1 -->
<svg width="778pt" height="284pt"
 viewBox="0.00 0.00 778.00 284.00" xmlns="http://www.w3.org/2000/svg" xmlns:xlink="http://www.w3.org/1999/xlink">
<g id="graph0" class="graph" transform="scale(1 1) rotate(0) translate(4 280)">
<title>dependencies</title>
<polygon fill="white" stroke="transparent" points="-4,4 -4,-280 774,-280 774,4 -4,4"/>
<text text-anchor="start" x="364.01" y="-42.4" font-family="sans-serif" font-weight="bold" font-size="14.00">Legend</text>
<polygon fill="#ffffb3" stroke="transparent" points="151,-10 151,-30 171,-30 171,-10 151,-10"/>
<text text-anchor="start" x="174.63" y="-15.4" font-family="sans-serif" font-size="14.00"> &#160;Declarations</text>
<polygon fill="#8dd3c7" stroke="transparent" points="264,-10 264,-30 284,-30 284,-10 264,-10"/>
<text text-anchor="start" x="287.73" y="-15.4" font-family="sans-serif" font-size="14.00"> &#160;Module</text>
<polygon fill="#80b1d3" stroke="transparent" points="350,-10 350,-30 370,-30 370,-10 350,-10"/>
<text text-anchor="start" x="373.78" y="-15.4" font-family="sans-serif" font-size="14.00"> &#160;Bootstrap</text>
<polygon fill="#fdb462" stroke="transparent" points="447,-10 447,-30 467,-30 467,-10 447,-10"/>
<text text-anchor="start" x="470.67" y="-15.4" font-family="sans-serif" font-size="14.00"> &#160;Providers</text>
<polygon fill="#fb8072" stroke="transparent" points="543,-10 543,-30 563,-30 563,-10 543,-10"/>
<text text-anchor="start" x="566.73" y="-15.4" font-family="sans-serif" font-size="14.00"> &#160;Exports</text>
<g id="clust1" class="cluster">
<title>cluster_StoryModule</title>
<polygon fill="none" stroke="black" stroke-dasharray="1,5" points="8,-70 8,-268 762,-268 762,-70 8,-70"/>
</g>
<g id="clust6" class="cluster">
<title>cluster_StoryModule_providers</title>
<polygon fill="none" stroke="black" points="616,-78 616,-130 754,-130 754,-78 616,-78"/>
</g>
<g id="clust4" class="cluster">
<title>cluster_StoryModule_exports</title>
<polygon fill="none" stroke="black" points="305,-208 305,-260 413,-260 413,-208 305,-208"/>
</g>
<g id="clust3" class="cluster">
<title>cluster_StoryModule_imports</title>
<polygon fill="none" stroke="black" points="16,-78 16,-130 608,-130 608,-78 16,-78"/>
</g>
<!-- AppLoggerModule -->
<g id="node1" class="node">
<title>AppLoggerModule</title>
<polygon fill="#8dd3c7" stroke="black" points="600.08,-122 597.08,-126 576.08,-126 573.08,-122 475.92,-122 475.92,-86 600.08,-86 600.08,-122"/>
<text text-anchor="middle" x="538" y="-99.8" font-family="Times,serif" font-size="14.00">AppLoggerModule</text>
</g>
<!-- StoryModule -->
<g id="node6" class="node">
<title>StoryModule</title>
<polygon fill="#8dd3c7" stroke="black" points="403.88,-187 400.88,-191 379.88,-191 376.88,-187 314.12,-187 314.12,-151 403.88,-151 403.88,-187"/>
<text text-anchor="middle" x="359" y="-164.8" font-family="Times,serif" font-size="14.00">StoryModule</text>
</g>
<!-- AppLoggerModule&#45;&gt;StoryModule -->
<g id="edge1" class="edge">
<title>AppLoggerModule&#45;&gt;StoryModule</title>
<path fill="none" stroke="black" d="M538,-122.02C538,-139.37 538,-163 538,-163 538,-163 414.17,-163 414.17,-163"/>
<polygon fill="black" stroke="black" points="414.17,-159.5 404.17,-163 414.17,-166.5 414.17,-159.5"/>
</g>
<!-- CoreModule -->
<g id="node2" class="node">
<title>CoreModule</title>
<polygon fill="#8dd3c7" stroke="black" points="458.26,-122 455.26,-126 434.26,-126 431.26,-122 371.74,-122 371.74,-86 458.26,-86 458.26,-122"/>
<text text-anchor="middle" x="415" y="-99.8" font-family="Times,serif" font-size="14.00">CoreModule</text>
</g>
<!-- CoreModule&#45;&gt;StoryModule -->
<g id="edge2" class="edge">
<title>CoreModule&#45;&gt;StoryModule</title>
<path fill="none" stroke="black" d="M387.78,-122.11C387.78,-122.11 387.78,-140.99 387.78,-140.99"/>
<polygon fill="black" stroke="black" points="384.28,-140.99 387.78,-150.99 391.28,-140.99 384.28,-140.99"/>
</g>
<!-- ListingModule -->
<g id="node3" class="node">
<title>ListingModule</title>
<polygon fill="#8dd3c7" stroke="black" points="353.72,-122 350.72,-126 329.72,-126 326.72,-122 254.28,-122 254.28,-86 353.72,-86 353.72,-122"/>
<text text-anchor="middle" x="304" y="-99.8" font-family="Times,serif" font-size="14.00">ListingModule</text>
</g>
<!-- ListingModule&#45;&gt;StoryModule -->
<g id="edge3" class="edge">
<title>ListingModule&#45;&gt;StoryModule</title>
<path fill="none" stroke="black" d="M333.83,-122.11C333.83,-122.11 333.83,-140.99 333.83,-140.99"/>
<polygon fill="black" stroke="black" points="330.33,-140.99 333.83,-150.99 337.33,-140.99 330.33,-140.99"/>
</g>
<!-- LookupsModule -->
<g id="node4" class="node">
<title>LookupsModule</title>
<polygon fill="#8dd3c7" stroke="black" points="236.05,-122 233.05,-126 212.05,-126 209.05,-122 127.95,-122 127.95,-86 236.05,-86 236.05,-122"/>
<text text-anchor="middle" x="182" y="-99.8" font-family="Times,serif" font-size="14.00">LookupsModule</text>
</g>
<!-- LookupsModule&#45;&gt;StoryModule -->
<g id="edge4" class="edge">
<title>LookupsModule&#45;&gt;StoryModule</title>
<path fill="none" stroke="black" d="M182,-122.02C182,-139.37 182,-163 182,-163 182,-163 303.88,-163 303.88,-163"/>
<polygon fill="black" stroke="black" points="303.88,-166.5 313.88,-163 303.88,-159.5 303.88,-166.5"/>
</g>
<!-- UserModule -->
<g id="node5" class="node">
<title>UserModule</title>
<polygon fill="#8dd3c7" stroke="black" points="109.98,-122 106.98,-126 85.98,-126 82.98,-122 24.02,-122 24.02,-86 109.98,-86 109.98,-122"/>
<text text-anchor="middle" x="67" y="-99.8" font-family="Times,serif" font-size="14.00">UserModule</text>
</g>
<!-- UserModule&#45;&gt;StoryModule -->
<g id="edge5" class="edge">
<title>UserModule&#45;&gt;StoryModule</title>
<path fill="none" stroke="black" d="M67,-122.28C67,-143.32 67,-175 67,-175 67,-175 304.01,-175 304.01,-175"/>
<polygon fill="black" stroke="black" points="304.01,-178.5 314.01,-175 304.01,-171.5 304.01,-178.5"/>
</g>
<!-- StoryService  -->
<g id="node7" class="node">
<title>StoryService </title>
<polygon fill="#fb8072" stroke="black" points="404.81,-252 313.19,-252 313.19,-216 404.81,-216 404.81,-252"/>
<text text-anchor="middle" x="359" y="-229.8" font-family="Times,serif" font-size="14.00">StoryService </text>
</g>
<!-- StoryModule&#45;&gt;StoryService  -->
<g id="edge6" class="edge">
<title>StoryModule&#45;&gt;StoryService </title>
<path fill="none" stroke="black" stroke-dasharray="5,2" d="M359,-187.11C359,-187.11 359,-205.99 359,-205.99"/>
<polygon fill="black" stroke="black" points="355.5,-205.99 359,-215.99 362.5,-205.99 355.5,-205.99"/>
</g>
<!-- StoryService -->
<g id="node8" class="node">
<title>StoryService</title>
<ellipse fill="#fdb462" stroke="black" cx="685" cy="-104" rx="60.83" ry="18"/>
<text text-anchor="middle" x="685" y="-99.8" font-family="Times,serif" font-size="14.00">StoryService</text>
</g>
<!-- StoryService&#45;&gt;StoryModule -->
<g id="edge7" class="edge">
<title>StoryService&#45;&gt;StoryModule</title>
<path fill="none" stroke="black" d="M685,-122.28C685,-143.32 685,-175 685,-175 685,-175 413.99,-175 413.99,-175"/>
<polygon fill="black" stroke="black" points="413.99,-171.5 403.99,-175 413.99,-178.5 413.99,-171.5"/>
</g>
</g>
</svg>
