<?xml version="1.0" encoding="UTF-8" standalone="no"?>
<!DOCTYPE svg PUBLIC "-//W3C//DTD SVG 1.1//EN"
 "http://www.w3.org/Graphics/SVG/1.1/DTD/svg11.dtd">
<!-- Generated by graphviz version 2.47.0 (20210316.0004)
 -->
<!-- Title: dependencies Pages: 1 -->
<svg width="519pt" height="284pt"
 viewBox="0.00 0.00 519.00 284.00" xmlns="http://www.w3.org/2000/svg" xmlns:xlink="http://www.w3.org/1999/xlink">
<g id="graph0" class="graph" transform="scale(1 1) rotate(0) translate(4 280)">
<title>dependencies</title>
<polygon fill="white" stroke="transparent" points="-4,4 -4,-280 515,-280 515,4 -4,4"/>
<text text-anchor="start" x="234.51" y="-42.4" font-family="sans-serif" font-weight="bold" font-size="14.00">Legend</text>
<polygon fill="#ffffb3" stroke="transparent" points="21.5,-10 21.5,-30 41.5,-30 41.5,-10 21.5,-10"/>
<text text-anchor="start" x="45.13" y="-15.4" font-family="sans-serif" font-size="14.00"> &#160;Declarations</text>
<polygon fill="#8dd3c7" stroke="transparent" points="134.5,-10 134.5,-30 154.5,-30 154.5,-10 134.5,-10"/>
<text text-anchor="start" x="158.23" y="-15.4" font-family="sans-serif" font-size="14.00"> &#160;Module</text>
<polygon fill="#80b1d3" stroke="transparent" points="220.5,-10 220.5,-30 240.5,-30 240.5,-10 220.5,-10"/>
<text text-anchor="start" x="244.28" y="-15.4" font-family="sans-serif" font-size="14.00"> &#160;Bootstrap</text>
<polygon fill="#fdb462" stroke="transparent" points="317.5,-10 317.5,-30 337.5,-30 337.5,-10 317.5,-10"/>
<text text-anchor="start" x="341.17" y="-15.4" font-family="sans-serif" font-size="14.00"> &#160;Providers</text>
<polygon fill="#fb8072" stroke="transparent" points="413.5,-10 413.5,-30 433.5,-30 433.5,-10 413.5,-10"/>
<text text-anchor="start" x="437.23" y="-15.4" font-family="sans-serif" font-size="14.00"> &#160;Exports</text>
<g id="clust1" class="cluster">
<title>cluster_StoryModule</title>
<polygon fill="none" stroke="black" stroke-dasharray="1,5" points="8,-70 8,-268 503,-268 503,-70 8,-70"/>
</g>
<g id="clust6" class="cluster">
<title>cluster_StoryModule_providers</title>
<polygon fill="none" stroke="black" points="357,-78 357,-130 495,-130 495,-78 357,-78"/>
</g>
<g id="clust4" class="cluster">
<title>cluster_StoryModule_exports</title>
<polygon fill="none" stroke="black" points="186,-208 186,-260 294,-260 294,-208 186,-208"/>
</g>
<g id="clust3" class="cluster">
<title>cluster_StoryModule_imports</title>
<polygon fill="none" stroke="black" points="16,-78 16,-130 349,-130 349,-78 16,-78"/>
</g>
<!-- CoreModule -->
<g id="node1" class="node">
<title>CoreModule</title>
<polygon fill="#8dd3c7" stroke="black" points="341.26,-122 338.26,-126 317.26,-126 314.26,-122 254.74,-122 254.74,-86 341.26,-86 341.26,-122"/>
<text text-anchor="middle" x="298" y="-99.8" font-family="Times,serif" font-size="14.00">CoreModule</text>
</g>
<!-- StoryModule -->
<g id="node4" class="node">
<title>StoryModule</title>
<polygon fill="#8dd3c7" stroke="black" points="284.88,-187 281.88,-191 260.88,-191 257.88,-187 195.12,-187 195.12,-151 284.88,-151 284.88,-187"/>
<text text-anchor="middle" x="240" y="-164.8" font-family="Times,serif" font-size="14.00">StoryModule</text>
</g>
<!-- CoreModule&#45;&gt;StoryModule -->
<g id="edge1" class="edge">
<title>CoreModule&#45;&gt;StoryModule</title>
<path fill="none" stroke="black" d="M269.78,-122.11C269.78,-122.11 269.78,-140.99 269.78,-140.99"/>
<polygon fill="black" stroke="black" points="266.28,-140.99 269.78,-150.99 273.28,-140.99 266.28,-140.99"/>
</g>
<!-- LookupsModule -->
<g id="node2" class="node">
<title>LookupsModule</title>
<polygon fill="#8dd3c7" stroke="black" points="236.05,-122 233.05,-126 212.05,-126 209.05,-122 127.95,-122 127.95,-86 236.05,-86 236.05,-122"/>
<text text-anchor="middle" x="182" y="-99.8" font-family="Times,serif" font-size="14.00">LookupsModule</text>
</g>
<!-- LookupsModule&#45;&gt;StoryModule -->
<g id="edge2" class="edge">
<title>LookupsModule&#45;&gt;StoryModule</title>
<path fill="none" stroke="black" d="M215.67,-122.11C215.67,-122.11 215.67,-140.99 215.67,-140.99"/>
<polygon fill="black" stroke="black" points="212.17,-140.99 215.67,-150.99 219.17,-140.99 212.17,-140.99"/>
</g>
<!-- UserModule -->
<g id="node3" class="node">
<title>UserModule</title>
<polygon fill="#8dd3c7" stroke="black" points="109.98,-122 106.98,-126 85.98,-126 82.98,-122 24.02,-122 24.02,-86 109.98,-86 109.98,-122"/>
<text text-anchor="middle" x="67" y="-99.8" font-family="Times,serif" font-size="14.00">UserModule</text>
</g>
<!-- UserModule&#45;&gt;StoryModule -->
<g id="edge3" class="edge">
<title>UserModule&#45;&gt;StoryModule</title>
<path fill="none" stroke="black" d="M67,-122.11C67,-141.34 67,-169 67,-169 67,-169 185,-169 185,-169"/>
<polygon fill="black" stroke="black" points="185,-172.5 195,-169 185,-165.5 185,-172.5"/>
</g>
<!-- StoryService  -->
<g id="node5" class="node">
<title>StoryService </title>
<polygon fill="#fb8072" stroke="black" points="285.81,-252 194.19,-252 194.19,-216 285.81,-216 285.81,-252"/>
<text text-anchor="middle" x="240" y="-229.8" font-family="Times,serif" font-size="14.00">StoryService </text>
</g>
<!-- StoryModule&#45;&gt;StoryService  -->
<g id="edge4" class="edge">
<title>StoryModule&#45;&gt;StoryService </title>
<path fill="none" stroke="black" stroke-dasharray="5,2" d="M240,-187.11C240,-187.11 240,-205.99 240,-205.99"/>
<polygon fill="black" stroke="black" points="236.5,-205.99 240,-215.99 243.5,-205.99 236.5,-205.99"/>
</g>
<!-- StoryService -->
<g id="node6" class="node">
<title>StoryService</title>
<ellipse fill="#fdb462" stroke="black" cx="426" cy="-104" rx="60.83" ry="18"/>
<text text-anchor="middle" x="426" y="-99.8" font-family="Times,serif" font-size="14.00">StoryService</text>
</g>
<!-- StoryService&#45;&gt;StoryModule -->
<g id="edge5" class="edge">
<title>StoryService&#45;&gt;StoryModule</title>
<path fill="none" stroke="black" d="M426,-122.11C426,-141.34 426,-169 426,-169 426,-169 295.03,-169 295.03,-169"/>
<polygon fill="black" stroke="black" points="295.03,-165.5 285.03,-169 295.03,-172.5 295.03,-165.5"/>
</g>
</g>
</svg>
