<?xml version="1.0" encoding="UTF-8" standalone="no"?>
<!DOCTYPE svg PUBLIC "-//W3C//DTD SVG 1.1//EN"
 "http://www.w3.org/Graphics/SVG/1.1/DTD/svg11.dtd">
<!-- Generated by graphviz version 2.47.0 (20210316.0004)
 -->
<!-- Title: dependencies Pages: 1 -->
<svg width="504pt" height="284pt"
 viewBox="0.00 0.00 504.00 284.00" xmlns="http://www.w3.org/2000/svg" xmlns:xlink="http://www.w3.org/1999/xlink">
<g id="graph0" class="graph" transform="scale(1 1) rotate(0) translate(4 280)">
<title>dependencies</title>
<polygon fill="white" stroke="transparent" points="-4,4 -4,-280 500,-280 500,4 -4,4"/>
<text text-anchor="start" x="227.01" y="-42.4" font-family="sans-serif" font-weight="bold" font-size="14.00">Legend</text>
<polygon fill="#ffffb3" stroke="transparent" points="14,-10 14,-30 34,-30 34,-10 14,-10"/>
<text text-anchor="start" x="37.63" y="-15.4" font-family="sans-serif" font-size="14.00"> &#160;Declarations</text>
<polygon fill="#8dd3c7" stroke="transparent" points="127,-10 127,-30 147,-30 147,-10 127,-10"/>
<text text-anchor="start" x="150.73" y="-15.4" font-family="sans-serif" font-size="14.00"> &#160;Module</text>
<polygon fill="#80b1d3" stroke="transparent" points="213,-10 213,-30 233,-30 233,-10 213,-10"/>
<text text-anchor="start" x="236.78" y="-15.4" font-family="sans-serif" font-size="14.00"> &#160;Bootstrap</text>
<polygon fill="#fdb462" stroke="transparent" points="310,-10 310,-30 330,-30 330,-10 310,-10"/>
<text text-anchor="start" x="333.67" y="-15.4" font-family="sans-serif" font-size="14.00"> &#160;Providers</text>
<polygon fill="#fb8072" stroke="transparent" points="406,-10 406,-30 426,-30 426,-10 406,-10"/>
<text text-anchor="start" x="429.73" y="-15.4" font-family="sans-serif" font-size="14.00"> &#160;Exports</text>
<g id="clust1" class="cluster">
<title>cluster_LookupsModule</title>
<polygon fill="none" stroke="black" stroke-dasharray="1,5" points="51,-70 51,-268 445,-268 445,-70 51,-70"/>
</g>
<g id="clust4" class="cluster">
<title>cluster_LookupsModule_exports</title>
<polygon fill="none" stroke="black" points="219,-208 219,-260 345,-260 345,-208 219,-208"/>
</g>
<g id="clust3" class="cluster">
<title>cluster_LookupsModule_imports</title>
<polygon fill="none" stroke="black" points="231,-78 231,-130 437,-130 437,-78 231,-78"/>
</g>
<g id="clust6" class="cluster">
<title>cluster_LookupsModule_providers</title>
<polygon fill="none" stroke="black" points="59,-78 59,-130 223,-130 223,-78 59,-78"/>
</g>
<!-- CoreModule -->
<g id="node1" class="node">
<title>CoreModule</title>
<polygon fill="#8dd3c7" stroke="black" points="429.26,-122 426.26,-126 405.26,-126 402.26,-122 342.74,-122 342.74,-86 429.26,-86 429.26,-122"/>
<text text-anchor="middle" x="386" y="-99.8" font-family="Times,serif" font-size="14.00">CoreModule</text>
</g>
<!-- LookupsModule -->
<g id="node3" class="node">
<title>LookupsModule</title>
<polygon fill="#8dd3c7" stroke="black" points="336.05,-187 333.05,-191 312.05,-191 309.05,-187 227.95,-187 227.95,-151 336.05,-151 336.05,-187"/>
<text text-anchor="middle" x="282" y="-164.8" font-family="Times,serif" font-size="14.00">LookupsModule</text>
</g>
<!-- CoreModule&#45;&gt;LookupsModule -->
<g id="edge1" class="edge">
<title>CoreModule&#45;&gt;LookupsModule</title>
<path fill="none" stroke="black" d="M342.65,-104C335.64,-104 330.63,-104 330.63,-104 330.63,-104 330.63,-140.89 330.63,-140.89"/>
<polygon fill="black" stroke="black" points="327.13,-140.89 330.63,-150.89 334.13,-140.89 327.13,-140.89"/>
</g>
<!-- UserModule -->
<g id="node2" class="node">
<title>UserModule</title>
<polygon fill="#8dd3c7" stroke="black" points="324.98,-122 321.98,-126 300.98,-126 297.98,-122 239.02,-122 239.02,-86 324.98,-86 324.98,-122"/>
<text text-anchor="middle" x="282" y="-99.8" font-family="Times,serif" font-size="14.00">UserModule</text>
</g>
<!-- UserModule&#45;&gt;LookupsModule -->
<g id="edge2" class="edge">
<title>UserModule&#45;&gt;LookupsModule</title>
<path fill="none" stroke="black" d="M282,-122.11C282,-122.11 282,-140.99 282,-140.99"/>
<polygon fill="black" stroke="black" points="278.5,-140.99 282,-150.99 285.5,-140.99 278.5,-140.99"/>
</g>
<!-- LookupsService  -->
<g id="node4" class="node">
<title>LookupsService </title>
<polygon fill="#fb8072" stroke="black" points="337.48,-252 226.52,-252 226.52,-216 337.48,-216 337.48,-252"/>
<text text-anchor="middle" x="282" y="-229.8" font-family="Times,serif" font-size="14.00">LookupsService </text>
</g>
<!-- LookupsModule&#45;&gt;LookupsService  -->
<g id="edge3" class="edge">
<title>LookupsModule&#45;&gt;LookupsService </title>
<path fill="none" stroke="black" stroke-dasharray="5,2" d="M282,-187.11C282,-187.11 282,-205.99 282,-205.99"/>
<polygon fill="black" stroke="black" points="278.5,-205.99 282,-215.99 285.5,-205.99 278.5,-205.99"/>
</g>
<!-- LookupsService -->
<g id="node5" class="node">
<title>LookupsService</title>
<ellipse fill="#fdb462" stroke="black" cx="141" cy="-104" rx="73.58" ry="18"/>
<text text-anchor="middle" x="141" y="-99.8" font-family="Times,serif" font-size="14.00">LookupsService</text>
</g>
<!-- LookupsService&#45;&gt;LookupsModule -->
<g id="edge4" class="edge">
<title>LookupsService&#45;&gt;LookupsModule</title>
<path fill="none" stroke="black" d="M215.12,-104C225.86,-104 233.37,-104 233.37,-104 233.37,-104 233.37,-140.89 233.37,-140.89"/>
<polygon fill="black" stroke="black" points="229.87,-140.89 233.37,-150.89 236.87,-140.89 229.87,-140.89"/>
</g>
</g>
</svg>
