<?xml version="1.0" encoding="UTF-8" standalone="no"?>
<!DOCTYPE svg PUBLIC "-//W3C//DTD SVG 1.1//EN"
 "http://www.w3.org/Graphics/SVG/1.1/DTD/svg11.dtd">
<!-- Generated by graphviz version 2.47.0 (20210316.0004)
 -->
<!-- Title: dependencies Pages: 1 -->
<svg width="504pt" height="284pt"
 viewBox="0.00 0.00 504.00 284.00" xmlns="http://www.w3.org/2000/svg" xmlns:xlink="http://www.w3.org/1999/xlink">
<g id="graph0" class="graph" transform="scale(1 1) rotate(0) translate(4 280)">
<title>dependencies</title>
<polygon fill="white" stroke="transparent" points="-4,4 -4,-280 500,-280 500,4 -4,4"/>
<text text-anchor="start" x="227.01" y="-42.4" font-family="sans-serif" font-weight="bold" font-size="14.00">Legend</text>
<polygon fill="#ffffb3" stroke="transparent" points="14,-10 14,-30 34,-30 34,-10 14,-10"/>
<text text-anchor="start" x="37.63" y="-15.4" font-family="sans-serif" font-size="14.00"> &#160;Declarations</text>
<polygon fill="#8dd3c7" stroke="transparent" points="127,-10 127,-30 147,-30 147,-10 127,-10"/>
<text text-anchor="start" x="150.73" y="-15.4" font-family="sans-serif" font-size="14.00"> &#160;Module</text>
<polygon fill="#80b1d3" stroke="transparent" points="213,-10 213,-30 233,-30 233,-10 213,-10"/>
<text text-anchor="start" x="236.78" y="-15.4" font-family="sans-serif" font-size="14.00"> &#160;Bootstrap</text>
<polygon fill="#fdb462" stroke="transparent" points="310,-10 310,-30 330,-30 330,-10 310,-10"/>
<text text-anchor="start" x="333.67" y="-15.4" font-family="sans-serif" font-size="14.00"> &#160;Providers</text>
<polygon fill="#fb8072" stroke="transparent" points="406,-10 406,-30 426,-30 426,-10 406,-10"/>
<text text-anchor="start" x="429.73" y="-15.4" font-family="sans-serif" font-size="14.00"> &#160;Exports</text>
<g id="clust1" class="cluster">
<title>cluster_LookupsModule</title>
<polygon fill="none" stroke="black" stroke-dasharray="1,5" points="51,-70 51,-268 445,-268 445,-70 51,-70"/>
</g>
<g id="clust4" class="cluster">
<title>cluster_LookupsModule_exports</title>
<polygon fill="none" stroke="black" points="151,-208 151,-260 277,-260 277,-208 151,-208"/>
</g>
<g id="clust6" class="cluster">
<title>cluster_LookupsModule_providers</title>
<polygon fill="none" stroke="black" points="273,-78 273,-130 437,-130 437,-78 273,-78"/>
</g>
<g id="clust3" class="cluster">
<title>cluster_LookupsModule_imports</title>
<polygon fill="none" stroke="black" points="59,-78 59,-130 265,-130 265,-78 59,-78"/>
</g>
<!-- CoreModule -->
<g id="node1" class="node">
<title>CoreModule</title>
<polygon fill="#8dd3c7" stroke="black" points="257.26,-122 254.26,-126 233.26,-126 230.26,-122 170.74,-122 170.74,-86 257.26,-86 257.26,-122"/>
<text text-anchor="middle" x="214" y="-99.8" font-family="Times,serif" font-size="14.00">CoreModule</text>
</g>
<!-- LookupsModule -->
<g id="node3" class="node">
<title>LookupsModule</title>
<polygon fill="#8dd3c7" stroke="black" points="268.05,-187 265.05,-191 244.05,-191 241.05,-187 159.95,-187 159.95,-151 268.05,-151 268.05,-187"/>
<text text-anchor="middle" x="214" y="-164.8" font-family="Times,serif" font-size="14.00">LookupsModule</text>
</g>
<!-- CoreModule&#45;&gt;LookupsModule -->
<g id="edge1" class="edge">
<title>CoreModule&#45;&gt;LookupsModule</title>
<path fill="none" stroke="black" d="M214,-122.11C214,-122.11 214,-140.99 214,-140.99"/>
<polygon fill="black" stroke="black" points="210.5,-140.99 214,-150.99 217.5,-140.99 210.5,-140.99"/>
</g>
<!-- UserModule -->
<g id="node2" class="node">
<title>UserModule</title>
<polygon fill="#8dd3c7" stroke="black" points="152.98,-122 149.98,-126 128.98,-126 125.98,-122 67.02,-122 67.02,-86 152.98,-86 152.98,-122"/>
<text text-anchor="middle" x="110" y="-99.8" font-family="Times,serif" font-size="14.00">UserModule</text>
</g>
<!-- UserModule&#45;&gt;LookupsModule -->
<g id="edge2" class="edge">
<title>UserModule&#45;&gt;LookupsModule</title>
<path fill="none" stroke="black" d="M153.2,-104C160.18,-104 165.17,-104 165.17,-104 165.17,-104 165.17,-140.89 165.17,-140.89"/>
<polygon fill="black" stroke="black" points="161.67,-140.89 165.17,-150.89 168.67,-140.89 161.67,-140.89"/>
</g>
<!-- LookupsService  -->
<g id="node4" class="node">
<title>LookupsService </title>
<polygon fill="#fb8072" stroke="black" points="269.48,-252 158.52,-252 158.52,-216 269.48,-216 269.48,-252"/>
<text text-anchor="middle" x="214" y="-229.8" font-family="Times,serif" font-size="14.00">LookupsService </text>
</g>
<!-- LookupsModule&#45;&gt;LookupsService  -->
<g id="edge3" class="edge">
<title>LookupsModule&#45;&gt;LookupsService </title>
<path fill="none" stroke="black" stroke-dasharray="5,2" d="M214,-187.11C214,-187.11 214,-205.99 214,-205.99"/>
<polygon fill="black" stroke="black" points="210.5,-205.99 214,-215.99 217.5,-205.99 210.5,-205.99"/>
</g>
<!-- LookupsService -->
<g id="node5" class="node">
<title>LookupsService</title>
<ellipse fill="#fdb462" stroke="black" cx="355" cy="-104" rx="73.58" ry="18"/>
<text text-anchor="middle" x="355" y="-99.8" font-family="Times,serif" font-size="14.00">LookupsService</text>
</g>
<!-- LookupsService&#45;&gt;LookupsModule -->
<g id="edge4" class="edge">
<title>LookupsService&#45;&gt;LookupsModule</title>
<path fill="none" stroke="black" d="M281.04,-104C270.32,-104 262.83,-104 262.83,-104 262.83,-104 262.83,-140.89 262.83,-140.89"/>
<polygon fill="black" stroke="black" points="259.33,-140.89 262.83,-150.89 266.33,-140.89 259.33,-140.89"/>
</g>
</g>
</svg>
