<?xml version="1.0" encoding="UTF-8" standalone="no"?>
<!DOCTYPE svg PUBLIC "-//W3C//DTD SVG 1.1//EN"
 "http://www.w3.org/Graphics/SVG/1.1/DTD/svg11.dtd">
<!-- Generated by graphviz version 2.47.0 (20210316.0004)
 -->
<!-- Title: dependencies Pages: 1 -->
<svg width="1353pt" height="572pt"
 viewBox="0.00 0.00 1353.00 572.00" xmlns="http://www.w3.org/2000/svg" xmlns:xlink="http://www.w3.org/1999/xlink">
<g id="graph0" class="graph" transform="scale(1 1) rotate(0) translate(4 568)">
<title>dependencies</title>
<polygon fill="white" stroke="transparent" points="-4,4 -4,-568 1349,-568 1349,4 -4,4"/>
<text text-anchor="start" x="651.51" y="-42.4" font-family="sans-serif" font-weight="bold" font-size="14.00">Legend</text>
<polygon fill="#ffffb3" stroke="transparent" points="438.5,-10 438.5,-30 458.5,-30 458.5,-10 438.5,-10"/>
<text text-anchor="start" x="462.13" y="-15.4" font-family="sans-serif" font-size="14.00"> &#160;Declarations</text>
<polygon fill="#8dd3c7" stroke="transparent" points="551.5,-10 551.5,-30 571.5,-30 571.5,-10 551.5,-10"/>
<text text-anchor="start" x="575.23" y="-15.4" font-family="sans-serif" font-size="14.00"> &#160;Module</text>
<polygon fill="#80b1d3" stroke="transparent" points="637.5,-10 637.5,-30 657.5,-30 657.5,-10 637.5,-10"/>
<text text-anchor="start" x="661.28" y="-15.4" font-family="sans-serif" font-size="14.00"> &#160;Bootstrap</text>
<polygon fill="#fdb462" stroke="transparent" points="734.5,-10 734.5,-30 754.5,-30 754.5,-10 734.5,-10"/>
<text text-anchor="start" x="758.17" y="-15.4" font-family="sans-serif" font-size="14.00"> &#160;Providers</text>
<polygon fill="#fb8072" stroke="transparent" points="830.5,-10 830.5,-30 850.5,-30 850.5,-10 830.5,-10"/>
<text text-anchor="start" x="854.23" y="-15.4" font-family="sans-serif" font-size="14.00"> &#160;Exports</text>
<g id="clust1" class="cluster">
<title>cluster_ApplicationModule</title>
<polygon fill="none" stroke="black" stroke-dasharray="1,5" points="813,-214 813,-556 1031,-556 1031,-214 813,-214"/>
</g>
<g id="clust3" class="cluster">
<title>cluster_ApplicationModule_imports</title>
<polygon fill="none" stroke="black" points="821,-222 821,-491 1023,-491 1023,-222 821,-222"/>
</g>
<g id="clust7" class="cluster">
<title>cluster_CoreModule</title>
<polygon fill="none" stroke="black" stroke-dasharray="1,5" points="8,-70 8,-282 805,-282 805,-70 8,-70"/>
</g>
<g id="clust10" class="cluster">
<title>cluster_CoreModule_exports</title>
<polygon fill="none" stroke="black" points="190,-222 190,-274 797,-274 797,-222 190,-222"/>
</g>
<g id="clust12" class="cluster">
<title>cluster_CoreModule_providers</title>
<polygon fill="none" stroke="black" points="16,-78 16,-130 797,-130 797,-78 16,-78"/>
</g>
<g id="clust19" class="cluster">
<title>cluster_ListingModule</title>
<polygon fill="none" stroke="black" stroke-dasharray="1,5" points="191,-366 191,-434 483,-434 483,-366 191,-366"/>
</g>
<g id="clust22" class="cluster">
<title>cluster_ListingModule_exports</title>
<polygon fill="none" stroke="black" points="357,-374 357,-426 475,-426 475,-374 357,-374"/>
</g>
<g id="clust24" class="cluster">
<title>cluster_ListingModule_providers</title>
<polygon fill="none" stroke="black" points="199,-374 199,-426 349,-426 349,-374 199,-374"/>
</g>
<g id="clust25" class="cluster">
<title>cluster_LookupsModule</title>
<polygon fill="none" stroke="black" stroke-dasharray="1,5" points="491,-366 491,-434 805,-434 805,-366 491,-366"/>
</g>
<g id="clust28" class="cluster">
<title>cluster_LookupsModule_exports</title>
<polygon fill="none" stroke="black" points="671,-374 671,-426 797,-426 797,-374 671,-374"/>
</g>
<g id="clust30" class="cluster">
<title>cluster_LookupsModule_providers</title>
<polygon fill="none" stroke="black" points="499,-374 499,-426 663,-426 663,-374 499,-374"/>
</g>
<g id="clust31" class="cluster">
<title>cluster_StoryModule</title>
<polygon fill="none" stroke="black" stroke-dasharray="1,5" points="1067,-290 1067,-358 1337,-358 1337,-290 1067,-290"/>
</g>
<g id="clust34" class="cluster">
<title>cluster_StoryModule_exports</title>
<polygon fill="none" stroke="black" points="1221,-298 1221,-350 1329,-350 1329,-298 1221,-298"/>
</g>
<g id="clust36" class="cluster">
<title>cluster_StoryModule_providers</title>
<polygon fill="none" stroke="black" points="1075,-298 1075,-350 1213,-350 1213,-298 1075,-298"/>
</g>
<g id="clust37" class="cluster">
<title>cluster_UserModule</title>
<polygon fill="none" stroke="black" stroke-dasharray="1,5" points="813,-138 813,-206 1073,-206 1073,-138 813,-138"/>
</g>
<g id="clust40" class="cluster">
<title>cluster_UserModule_exports</title>
<polygon fill="none" stroke="black" points="961,-146 961,-198 1065,-198 1065,-146 961,-146"/>
</g>
<g id="clust42" class="cluster">
<title>cluster_UserModule_providers</title>
<polygon fill="none" stroke="black" points="821,-146 821,-198 953,-198 953,-146 821,-146"/>
</g>
<!-- DevModule -->
<g id="node1" class="node">
<title>DevModule</title>
<polygon fill="#8dd3c7" stroke="black" points="1015.37,-266 1012.37,-270 991.37,-270 988.37,-266 932.63,-266 932.63,-230 1015.37,-230 1015.37,-266"/>
<text text-anchor="middle" x="974" y="-243.8" font-family="Times,serif" font-size="14.00">DevModule</text>
</g>
<!-- ApplicationModule -->
<g id="node6" class="node">
<title>ApplicationModule</title>
<polygon fill="#8dd3c7" stroke="black" points="1022.65,-548 1019.65,-552 998.65,-552 995.65,-548 897.35,-548 897.35,-512 1022.65,-512 1022.65,-548"/>
<text text-anchor="middle" x="960" y="-525.8" font-family="Times,serif" font-size="14.00">ApplicationModule</text>
</g>
<!-- DevModule&#45;&gt;ApplicationModule -->
<g id="edge1" class="edge">
<title>DevModule&#45;&gt;ApplicationModule</title>
<path fill="none" stroke="black" d="M1001.81,-266.07C1001.81,-266.07 1001.81,-501.72 1001.81,-501.72"/>
<polygon fill="black" stroke="black" points="998.31,-501.72 1001.81,-511.72 1005.31,-501.72 998.31,-501.72"/>
</g>
<!-- ListingModule -->
<g id="node2" class="node">
<title>ListingModule</title>
<polygon fill="#8dd3c7" stroke="black" points="928.72,-483 925.72,-487 904.72,-487 901.72,-483 829.28,-483 829.28,-447 928.72,-447 928.72,-483"/>
<text text-anchor="middle" x="879" y="-460.8" font-family="Times,serif" font-size="14.00">ListingModule</text>
</g>
<!-- ListingModule&#45;&gt;ApplicationModule -->
<g id="edge2" class="edge">
<title>ListingModule&#45;&gt;ApplicationModule</title>
<path fill="none" stroke="black" d="M912.89,-483.11C912.89,-483.11 912.89,-501.99 912.89,-501.99"/>
<polygon fill="black" stroke="black" points="909.39,-501.99 912.89,-511.99 916.39,-501.99 909.39,-501.99"/>
</g>
<!-- ListingService  -->
<g id="node18" class="node">
<title>ListingService </title>
<polygon fill="#fb8072" stroke="black" points="466.65,-418 365.35,-418 365.35,-382 466.65,-382 466.65,-418"/>
<text text-anchor="middle" x="416" y="-395.8" font-family="Times,serif" font-size="14.00">ListingService </text>
</g>
<!-- ListingModule&#45;&gt;ListingService  -->
<g id="edge21" class="edge">
<title>ListingModule&#45;&gt;ListingService </title>
<path fill="none" stroke="black" stroke-dasharray="5,2" d="M829.01,-469C709.29,-469 416,-469 416,-469 416,-469 416,-428.13 416,-428.13"/>
<polygon fill="black" stroke="black" points="419.5,-428.13 416,-418.13 412.5,-428.13 419.5,-428.13"/>
</g>
<!-- LookupsModule -->
<g id="node3" class="node">
<title>LookupsModule</title>
<polygon fill="#8dd3c7" stroke="black" points="937.05,-342 934.05,-346 913.05,-346 910.05,-342 828.95,-342 828.95,-306 937.05,-306 937.05,-342"/>
<text text-anchor="middle" x="883" y="-319.8" font-family="Times,serif" font-size="14.00">LookupsModule</text>
</g>
<!-- LookupsModule&#45;&gt;ListingModule -->
<g id="edge18" class="edge">
<title>LookupsModule&#45;&gt;ListingModule</title>
<path fill="none" stroke="black" d="M857.17,-342.14C857.17,-342.14 857.17,-436.93 857.17,-436.93"/>
<polygon fill="black" stroke="black" points="853.67,-436.92 857.17,-446.93 860.67,-436.93 853.67,-436.92"/>
</g>
<!-- StoryModule -->
<g id="node4" class="node">
<title>StoryModule</title>
<polygon fill="#8dd3c7" stroke="black" points="960.88,-418 957.88,-422 936.88,-422 933.88,-418 871.12,-418 871.12,-382 960.88,-382 960.88,-418"/>
<text text-anchor="middle" x="916" y="-395.8" font-family="Times,serif" font-size="14.00">StoryModule</text>
</g>
<!-- LookupsModule&#45;&gt;StoryModule -->
<g id="edge28" class="edge">
<title>LookupsModule&#45;&gt;StoryModule</title>
<path fill="none" stroke="black" d="M904.17,-342.01C904.17,-342.01 904.17,-371.85 904.17,-371.85"/>
<polygon fill="black" stroke="black" points="900.67,-371.85 904.17,-381.85 907.67,-371.85 900.67,-371.85"/>
</g>
<!-- LookupsModule&#45;&gt;ApplicationModule -->
<g id="edge3" class="edge">
<title>LookupsModule&#45;&gt;ApplicationModule</title>
<path fill="none" stroke="black" d="M937.06,-330C956.88,-330 974.57,-330 974.57,-330 974.57,-330 974.57,-501.9 974.57,-501.9"/>
<polygon fill="black" stroke="black" points="971.07,-501.9 974.57,-511.9 978.07,-501.9 971.07,-501.9"/>
</g>
<!-- LookupsService  -->
<g id="node20" class="node">
<title>LookupsService </title>
<polygon fill="#fb8072" stroke="black" points="789.48,-418 678.52,-418 678.52,-382 789.48,-382 789.48,-418"/>
<text text-anchor="middle" x="734" y="-395.8" font-family="Times,serif" font-size="14.00">LookupsService </text>
</g>
<!-- LookupsModule&#45;&gt;LookupsService  -->
<g id="edge25" class="edge">
<title>LookupsModule&#45;&gt;LookupsService </title>
<path fill="none" stroke="black" stroke-dasharray="5,2" d="M843.28,-342.2C843.28,-366.36 843.28,-406 843.28,-406 843.28,-406 799.28,-406 799.28,-406"/>
<polygon fill="black" stroke="black" points="799.28,-402.5 789.28,-406 799.28,-409.5 799.28,-402.5"/>
</g>
<!-- StoryModule&#45;&gt;ListingModule -->
<g id="edge19" class="edge">
<title>StoryModule&#45;&gt;ListingModule</title>
<path fill="none" stroke="black" d="M899.83,-418.11C899.83,-418.11 899.83,-436.99 899.83,-436.99"/>
<polygon fill="black" stroke="black" points="896.33,-436.99 899.83,-446.99 903.33,-436.99 896.33,-436.99"/>
</g>
<!-- StoryModule&#45;&gt;ApplicationModule -->
<g id="edge4" class="edge">
<title>StoryModule&#45;&gt;ApplicationModule</title>
<path fill="none" stroke="black" d="M944.78,-418.08C944.78,-418.08 944.78,-501.66 944.78,-501.66"/>
<polygon fill="black" stroke="black" points="941.28,-501.66 944.78,-511.66 948.28,-501.66 941.28,-501.66"/>
</g>
<!-- StoryService  -->
<g id="node22" class="node">
<title>StoryService </title>
<polygon fill="#fb8072" stroke="black" points="1320.81,-342 1229.19,-342 1229.19,-306 1320.81,-306 1320.81,-342"/>
<text text-anchor="middle" x="1275" y="-319.8" font-family="Times,serif" font-size="14.00">StoryService </text>
</g>
<!-- StoryModule&#45;&gt;StoryService  -->
<g id="edge30" class="edge">
<title>StoryModule&#45;&gt;StoryService </title>
<path fill="none" stroke="black" stroke-dasharray="5,2" d="M961.1,-400C1057.52,-400 1275,-400 1275,-400 1275,-400 1275,-352.01 1275,-352.01"/>
<polygon fill="black" stroke="black" points="1278.5,-352.01 1275,-342.01 1271.5,-352.01 1278.5,-352.01"/>
</g>
<!-- UserModule -->
<g id="node5" class="node">
<title>UserModule</title>
<polygon fill="#8dd3c7" stroke="black" points="914.98,-266 911.98,-270 890.98,-270 887.98,-266 829.02,-266 829.02,-230 914.98,-230 914.98,-266"/>
<text text-anchor="middle" x="872" y="-243.8" font-family="Times,serif" font-size="14.00">UserModule</text>
</g>
<!-- UserModule&#45;&gt;ListingModule -->
<g id="edge20" class="edge">
<title>UserModule&#45;&gt;ListingModule</title>
<path fill="none" stroke="black" d="M828.82,-254C824.03,-254 820.83,-254 820.83,-254 820.83,-254 820.83,-455 820.83,-455 820.83,-455 821.64,-455 821.64,-455"/>
<polygon fill="black" stroke="black" points="818.92,-458.5 828.92,-455 818.92,-451.5 818.92,-458.5"/>
</g>
<!-- UserModule&#45;&gt;LookupsModule -->
<g id="edge24" class="edge">
<title>UserModule&#45;&gt;LookupsModule</title>
<path fill="none" stroke="black" d="M850.51,-266.01C850.51,-266.01 850.51,-295.85 850.51,-295.85"/>
<polygon fill="black" stroke="black" points="847.01,-295.85 850.51,-305.85 854.01,-295.85 847.01,-295.85"/>
</g>
<!-- UserModule&#45;&gt;StoryModule -->
<g id="edge29" class="edge">
<title>UserModule&#45;&gt;StoryModule</title>
<path fill="none" stroke="black" d="M872,-266.04C872,-278.56 872,-293 872,-293 872,-293 945.16,-293 945.16,-293 945.16,-293 945.16,-371.85 945.16,-371.85"/>
<polygon fill="black" stroke="black" points="941.66,-371.85 945.16,-381.85 948.66,-371.85 941.66,-371.85"/>
</g>
<!-- UserModule&#45;&gt;ApplicationModule -->
<g id="edge5" class="edge">
<title>UserModule&#45;&gt;ApplicationModule</title>
<path fill="none" stroke="black" d="M893.49,-266.24C893.49,-273.43 893.49,-280 893.49,-280 893.49,-280 988.19,-280 988.19,-280 988.19,-280 988.19,-501.62 988.19,-501.62"/>
<polygon fill="black" stroke="black" points="984.69,-501.62 988.19,-511.62 991.69,-501.62 984.69,-501.62"/>
</g>
<!-- UserService  -->
<g id="node24" class="node">
<title>UserService </title>
<polygon fill="#fb8072" stroke="black" points="1056.9,-190 969.1,-190 969.1,-154 1056.9,-154 1056.9,-190"/>
<text text-anchor="middle" x="1013" y="-167.8" font-family="Times,serif" font-size="14.00">UserService </text>
</g>
<!-- UserModule&#45;&gt;UserService  -->
<g id="edge33" class="edge">
<title>UserModule&#45;&gt;UserService </title>
<path fill="none" stroke="black" stroke-dasharray="5,2" d="M886.33,-229.97C886.33,-223.15 886.33,-217 886.33,-217 886.33,-217 992.24,-217 992.24,-217 992.24,-217 992.24,-200.04 992.24,-200.04"/>
<polygon fill="black" stroke="black" points="995.74,-200.04 992.24,-190.04 988.74,-200.04 995.74,-200.04"/>
</g>
<!-- FileService  -->
<g id="node7" class="node">
<title>FileService </title>
<polygon fill="#fb8072" stroke="black" points="788.76,-266 705.24,-266 705.24,-230 788.76,-230 788.76,-266"/>
<text text-anchor="middle" x="747" y="-243.8" font-family="Times,serif" font-size="14.00">FileService </text>
</g>
<!-- FireBaseService  -->
<g id="node8" class="node">
<title>FireBaseService </title>
<polygon fill="#fb8072" stroke="black" points="687.74,-266 576.26,-266 576.26,-230 687.74,-230 687.74,-266"/>
<text text-anchor="middle" x="632" y="-243.8" font-family="Times,serif" font-size="14.00">FireBaseService </text>
</g>
<!-- LocalizationService  -->
<g id="node9" class="node">
<title>LocalizationService </title>
<polygon fill="#fb8072" stroke="black" points="558.95,-266 427.05,-266 427.05,-230 558.95,-230 558.95,-266"/>
<text text-anchor="middle" x="493" y="-243.8" font-family="Times,serif" font-size="14.00">LocalizationService </text>
</g>
<!-- MailsService  -->
<g id="node10" class="node">
<title>MailsService </title>
<polygon fill="#fb8072" stroke="black" points="409.86,-266 316.14,-266 316.14,-230 409.86,-230 409.86,-266"/>
<text text-anchor="middle" x="363" y="-243.8" font-family="Times,serif" font-size="14.00">MailsService </text>
</g>
<!-- PrismaService  -->
<g id="node11" class="node">
<title>PrismaService </title>
<polygon fill="#fb8072" stroke="black" points="298.36,-266 197.64,-266 197.64,-230 298.36,-230 298.36,-266"/>
<text text-anchor="middle" x="248" y="-243.8" font-family="Times,serif" font-size="14.00">PrismaService </text>
</g>
<!-- CoreModule -->
<g id="node12" class="node">
<title>CoreModule</title>
<polygon fill="#8dd3c7" stroke="black" points="536.26,-190 533.26,-194 512.26,-194 509.26,-190 449.74,-190 449.74,-154 536.26,-154 536.26,-190"/>
<text text-anchor="middle" x="493" y="-167.8" font-family="Times,serif" font-size="14.00">CoreModule</text>
</g>
<!-- CoreModule&#45;&gt;DevModule -->
<g id="edge16" class="edge">
<title>CoreModule&#45;&gt;DevModule</title>
<path fill="none" stroke="black" d="M507.46,-190.24C507.46,-197.43 507.46,-204 507.46,-204 507.46,-204 938.89,-204 938.89,-204 938.89,-204 938.89,-219.85 938.89,-219.85"/>
<polygon fill="black" stroke="black" points="935.39,-219.85 938.89,-229.85 942.39,-219.85 935.39,-219.85"/>
</g>
<!-- CoreModule&#45;&gt;ListingModule -->
<g id="edge17" class="edge">
<title>CoreModule&#45;&gt;ListingModule</title>
<path fill="none" stroke="black" d="M536.58,-172C620.67,-172 797.14,-172 797.14,-172 797.14,-172 797.14,-462 797.14,-462 797.14,-462 819.02,-462 819.02,-462"/>
<polygon fill="black" stroke="black" points="819.02,-465.5 829.02,-462 819.02,-458.5 819.02,-465.5"/>
</g>
<!-- CoreModule&#45;&gt;LookupsModule -->
<g id="edge23" class="edge">
<title>CoreModule&#45;&gt;LookupsModule</title>
<path fill="none" stroke="black" d="M536.37,-186C552.77,-186 567.55,-186 567.55,-186 567.55,-186 567.55,-318 567.55,-318 567.55,-318 818.77,-318 818.77,-318"/>
<polygon fill="black" stroke="black" points="818.77,-321.5 828.77,-318 818.77,-314.5 818.77,-321.5"/>
</g>
<!-- CoreModule&#45;&gt;StoryModule -->
<g id="edge27" class="edge">
<title>CoreModule&#45;&gt;StoryModule</title>
<path fill="none" stroke="black" d="M536.39,-168C622.13,-168 805.03,-168 805.03,-168 805.03,-168 805.03,-394 805.03,-394 805.03,-394 860.87,-394 860.87,-394"/>
<polygon fill="black" stroke="black" points="860.87,-397.5 870.87,-394 860.87,-390.5 860.87,-397.5"/>
</g>
<!-- CoreModule&#45;&gt;UserModule -->
<g id="edge32" class="edge">
<title>CoreModule&#45;&gt;UserModule</title>
<path fill="none" stroke="black" d="M536.48,-163C623.96,-163 812.93,-163 812.93,-163 812.93,-163 812.93,-242 812.93,-242 812.93,-242 818.76,-242 818.76,-242"/>
<polygon fill="black" stroke="black" points="818.76,-245.5 828.76,-242 818.76,-238.5 818.76,-245.5"/>
</g>
<!-- CoreModule&#45;&gt;FileService  -->
<g id="edge6" class="edge">
<title>CoreModule&#45;&gt;FileService </title>
<path fill="none" stroke="black" stroke-dasharray="5,2" d="M536.38,-177C608.92,-177 747,-177 747,-177 747,-177 747,-219.72 747,-219.72"/>
<polygon fill="black" stroke="black" points="743.5,-219.72 747,-229.72 750.5,-219.72 743.5,-219.72"/>
</g>
<!-- CoreModule&#45;&gt;FireBaseService  -->
<g id="edge7" class="edge">
<title>CoreModule&#45;&gt;FireBaseService </title>
<path fill="none" stroke="black" stroke-dasharray="5,2" d="M536.31,-181C572.71,-181 618.85,-181 618.85,-181 618.85,-181 618.85,-219.69 618.85,-219.69"/>
<polygon fill="black" stroke="black" points="615.35,-219.69 618.85,-229.69 622.35,-219.69 615.35,-219.69"/>
</g>
<!-- CoreModule&#45;&gt;LocalizationService  -->
<g id="edge8" class="edge">
<title>CoreModule&#45;&gt;LocalizationService </title>
<path fill="none" stroke="black" stroke-dasharray="5,2" d="M478.54,-190.01C478.54,-190.01 478.54,-219.85 478.54,-219.85"/>
<polygon fill="black" stroke="black" points="475.04,-219.85 478.54,-229.85 482.04,-219.85 475.04,-219.85"/>
</g>
<!-- CoreModule&#45;&gt;MailsService  -->
<g id="edge9" class="edge">
<title>CoreModule&#45;&gt;MailsService </title>
<path fill="none" stroke="black" stroke-dasharray="5,2" d="M449.59,-183C412.03,-183 363.71,-183 363.71,-183 363.71,-183 363.71,-219.89 363.71,-219.89"/>
<polygon fill="black" stroke="black" points="360.21,-219.89 363.71,-229.89 367.21,-219.89 360.21,-219.89"/>
</g>
<!-- CoreModule&#45;&gt;PrismaService  -->
<g id="edge10" class="edge">
<title>CoreModule&#45;&gt;PrismaService </title>
<path fill="none" stroke="black" stroke-dasharray="5,2" d="M449.53,-176C383.29,-176 264.73,-176 264.73,-176 264.73,-176 264.73,-219.83 264.73,-219.83"/>
<polygon fill="black" stroke="black" points="261.23,-219.83 264.73,-229.83 268.23,-219.83 261.23,-219.83"/>
</g>
<!-- FileService -->
<g id="node13" class="node">
<title>FileService</title>
<ellipse fill="#fdb462" stroke="black" cx="734" cy="-104" rx="55.03" ry="18"/>
<text text-anchor="middle" x="734" y="-99.8" font-family="Times,serif" font-size="14.00">FileService</text>
</g>
<!-- FileService&#45;&gt;CoreModule -->
<g id="edge11" class="edge">
<title>FileService&#45;&gt;CoreModule</title>
<path fill="none" stroke="black" d="M683.3,-111.19C683.3,-126.1 683.3,-159 683.3,-159 683.3,-159 546.66,-159 546.66,-159"/>
<polygon fill="black" stroke="black" points="546.66,-155.5 536.66,-159 546.66,-162.5 546.66,-155.5"/>
</g>
<!-- FireBaseService -->
<g id="node14" class="node">
<title>FireBaseService</title>
<ellipse fill="#fdb462" stroke="black" cx="587" cy="-104" rx="74.13" ry="18"/>
<text text-anchor="middle" x="587" y="-99.8" font-family="Times,serif" font-size="14.00">FireBaseService</text>
</g>
<!-- FireBaseService&#45;&gt;CoreModule -->
<g id="edge12" class="edge">
<title>FireBaseService&#45;&gt;CoreModule</title>
<path fill="none" stroke="black" d="M524.53,-114.03C524.53,-114.03 524.53,-143.99 524.53,-143.99"/>
<polygon fill="black" stroke="black" points="521.03,-143.99 524.53,-153.99 528.03,-143.99 521.03,-143.99"/>
</g>
<!-- LocalizationService -->
<g id="node15" class="node">
<title>LocalizationService</title>
<ellipse fill="#fdb462" stroke="black" cx="406" cy="-104" rx="88.02" ry="18"/>
<text text-anchor="middle" x="406" y="-99.8" font-family="Times,serif" font-size="14.00">LocalizationService</text>
</g>
<!-- LocalizationService&#45;&gt;CoreModule -->
<g id="edge13" class="edge">
<title>LocalizationService&#45;&gt;CoreModule</title>
<path fill="none" stroke="black" d="M471.94,-116.16C471.94,-116.16 471.94,-143.8 471.94,-143.8"/>
<polygon fill="black" stroke="black" points="468.44,-143.8 471.94,-153.8 475.44,-143.8 468.44,-143.8"/>
</g>
<!-- MailsService -->
<g id="node16" class="node">
<title>MailsService</title>
<ellipse fill="#fdb462" stroke="black" cx="238" cy="-104" rx="61.97" ry="18"/>
<text text-anchor="middle" x="238" y="-99.8" font-family="Times,serif" font-size="14.00">MailsService</text>
</g>
<!-- MailsService&#45;&gt;CoreModule -->
<g id="edge14" class="edge">
<title>MailsService&#45;&gt;CoreModule</title>
<path fill="none" stroke="black" d="M231.27,-122.03C231.27,-139.06 231.27,-162 231.27,-162 231.27,-162 439.49,-162 439.49,-162"/>
<polygon fill="black" stroke="black" points="439.49,-165.5 449.49,-162 439.49,-158.5 439.49,-165.5"/>
</g>
<!-- PrismaService -->
<g id="node17" class="node">
<title>PrismaService</title>
<ellipse fill="#fdb462" stroke="black" cx="91" cy="-104" rx="66.63" ry="18"/>
<text text-anchor="middle" x="91" y="-99.8" font-family="Times,serif" font-size="14.00">PrismaService</text>
</g>
<!-- PrismaService&#45;&gt;CoreModule -->
<g id="edge15" class="edge">
<title>PrismaService&#45;&gt;CoreModule</title>
<path fill="none" stroke="black" d="M91,-122.11C91,-141.34 91,-169 91,-169 91,-169 439.6,-169 439.6,-169"/>
<polygon fill="black" stroke="black" points="439.6,-172.5 449.6,-169 439.6,-165.5 439.6,-172.5"/>
</g>
<!-- ListingService -->
<g id="node19" class="node">
<title>ListingService</title>
<ellipse fill="#fdb462" stroke="black" cx="274" cy="-400" rx="67.21" ry="18"/>
<text text-anchor="middle" x="274" y="-395.8" font-family="Times,serif" font-size="14.00">ListingService</text>
</g>
<!-- ListingService&#45;&gt;ListingModule -->
<g id="edge22" class="edge">
<title>ListingService&#45;&gt;ListingModule</title>
<path fill="none" stroke="black" d="M274,-418.01C274,-440.49 274,-476 274,-476 274,-476 819.23,-476 819.23,-476"/>
<polygon fill="black" stroke="black" points="819.23,-479.5 829.23,-476 819.23,-472.5 819.23,-479.5"/>
</g>
<!-- LookupsService -->
<g id="node21" class="node">
<title>LookupsService</title>
<ellipse fill="#fdb462" stroke="black" cx="581" cy="-400" rx="73.58" ry="18"/>
<text text-anchor="middle" x="581" y="-395.8" font-family="Times,serif" font-size="14.00">LookupsService</text>
</g>
<!-- LookupsService&#45;&gt;LookupsModule -->
<g id="edge26" class="edge">
<title>LookupsService&#45;&gt;LookupsModule</title>
<path fill="none" stroke="black" d="M615.59,-383.76C615.59,-363.09 615.59,-330 615.59,-330 615.59,-330 818.88,-330 818.88,-330"/>
<polygon fill="black" stroke="black" points="818.88,-333.5 828.88,-330 818.88,-326.5 818.88,-333.5"/>
</g>
<!-- StoryService -->
<g id="node23" class="node">
<title>StoryService</title>
<ellipse fill="#fdb462" stroke="black" cx="1144" cy="-324" rx="60.83" ry="18"/>
<text text-anchor="middle" x="1144" y="-319.8" font-family="Times,serif" font-size="14.00">StoryService</text>
</g>
<!-- StoryService&#45;&gt;StoryModule -->
<g id="edge31" class="edge">
<title>StoryService&#45;&gt;StoryModule</title>
<path fill="none" stroke="black" d="M1086.45,-318C1030.23,-318 953.05,-318 953.05,-318 953.05,-318 953.05,-371.8 953.05,-371.8"/>
<polygon fill="black" stroke="black" points="949.55,-371.8 953.05,-381.8 956.55,-371.8 949.55,-371.8"/>
</g>
<!-- UserService -->
<g id="node25" class="node">
<title>UserService</title>
<ellipse fill="#fdb462" stroke="black" cx="887" cy="-172" rx="58.44" ry="18"/>
<text text-anchor="middle" x="887" y="-167.8" font-family="Times,serif" font-size="14.00">UserService</text>
</g>
<!-- UserService&#45;&gt;UserModule -->
<g id="edge34" class="edge">
<title>UserService&#45;&gt;UserModule</title>
<path fill="none" stroke="black" d="M857.67,-187.75C857.67,-187.75 857.67,-219.87 857.67,-219.87"/>
<polygon fill="black" stroke="black" points="854.17,-219.87 857.67,-229.87 861.17,-219.87 854.17,-219.87"/>
</g>
</g>
</svg>
