<?xml version="1.0" encoding="UTF-8" standalone="no"?>
<!DOCTYPE svg PUBLIC "-//W3C//DTD SVG 1.1//EN"
 "http://www.w3.org/Graphics/SVG/1.1/DTD/svg11.dtd">
<!-- Generated by graphviz version 2.47.0 (20210316.0004)
 -->
<!-- Title: dependencies Pages: 1 -->
<svg width="1387pt" height="580pt"
 viewBox="0.00 0.00 1387.00 580.00" xmlns="http://www.w3.org/2000/svg" xmlns:xlink="http://www.w3.org/1999/xlink">
<g id="graph0" class="graph" transform="scale(1 1) rotate(0) translate(4 576)">
<title>dependencies</title>
<polygon fill="white" stroke="transparent" points="-4,4 -4,-576 1383,-576 1383,4 -4,4"/>
<text text-anchor="start" x="668.51" y="-42.4" font-family="sans-serif" font-weight="bold" font-size="14.00">Legend</text>
<polygon fill="#ffffb3" stroke="transparent" points="455.5,-10 455.5,-30 475.5,-30 475.5,-10 455.5,-10"/>
<text text-anchor="start" x="479.13" y="-15.4" font-family="sans-serif" font-size="14.00"> &#160;Declarations</text>
<polygon fill="#8dd3c7" stroke="transparent" points="568.5,-10 568.5,-30 588.5,-30 588.5,-10 568.5,-10"/>
<text text-anchor="start" x="592.23" y="-15.4" font-family="sans-serif" font-size="14.00"> &#160;Module</text>
<polygon fill="#80b1d3" stroke="transparent" points="654.5,-10 654.5,-30 674.5,-30 674.5,-10 654.5,-10"/>
<text text-anchor="start" x="678.28" y="-15.4" font-family="sans-serif" font-size="14.00"> &#160;Bootstrap</text>
<polygon fill="#fdb462" stroke="transparent" points="751.5,-10 751.5,-30 771.5,-30 771.5,-10 751.5,-10"/>
<text text-anchor="start" x="775.17" y="-15.4" font-family="sans-serif" font-size="14.00"> &#160;Providers</text>
<polygon fill="#fb8072" stroke="transparent" points="847.5,-10 847.5,-30 867.5,-30 867.5,-10 847.5,-10"/>
<text text-anchor="start" x="871.23" y="-15.4" font-family="sans-serif" font-size="14.00"> &#160;Exports</text>
<g id="clust1" class="cluster">
<title>cluster_ApplicationModule</title>
<polygon fill="none" stroke="black" stroke-dasharray="1,5" points="330,-214 330,-556 684,-556 684,-214 330,-214"/>
</g>
<g id="clust3" class="cluster">
<title>cluster_ApplicationModule_imports</title>
<polygon fill="none" stroke="black" points="370,-222 370,-480 676,-480 676,-222 370,-222"/>
</g>
<g id="clust7" class="cluster">
<title>cluster_AppLoggerModule</title>
<polygon fill="none" stroke="black" stroke-dasharray="1,5" points="1119,-214 1119,-282 1371,-282 1371,-214 1119,-214"/>
</g>
<g id="clust10" class="cluster">
<title>cluster_AppLoggerModule_exports</title>
<polygon fill="none" stroke="black" points="1263,-222 1263,-274 1363,-274 1363,-222 1263,-222"/>
</g>
<g id="clust12" class="cluster">
<title>cluster_AppLoggerModule_providers</title>
<polygon fill="none" stroke="black" points="1127,-222 1127,-274 1255,-274 1255,-222 1127,-222"/>
</g>
<g id="clust13" class="cluster">
<title>cluster_CoreModule</title>
<polygon fill="none" stroke="black" stroke-dasharray="1,5" points="692,-70 692,-282 1111,-282 1111,-70 692,-70"/>
</g>
<g id="clust16" class="cluster">
<title>cluster_CoreModule_exports</title>
<polygon fill="none" stroke="black" points="700,-222 700,-274 1017,-274 1017,-222 700,-222"/>
</g>
<g id="clust18" class="cluster">
<title>cluster_CoreModule_providers</title>
<polygon fill="none" stroke="black" points="700,-78 700,-130 1103,-130 1103,-78 700,-78"/>
</g>
<g id="clust25" class="cluster">
<title>cluster_ListingModule</title>
<polygon fill="none" stroke="black" stroke-dasharray="1,5" points="30,-420 30,-488 322,-488 322,-420 30,-420"/>
</g>
<g id="clust28" class="cluster">
<title>cluster_ListingModule_exports</title>
<polygon fill="none" stroke="black" points="196,-428 196,-480 314,-480 314,-428 196,-428"/>
</g>
<g id="clust30" class="cluster">
<title>cluster_ListingModule_providers</title>
<polygon fill="none" stroke="black" points="38,-428 38,-480 188,-480 188,-428 38,-428"/>
</g>
<g id="clust31" class="cluster">
<title>cluster_LookupsModule</title>
<polygon fill="none" stroke="black" stroke-dasharray="1,5" points="8,-344 8,-412 322,-412 322,-344 8,-344"/>
</g>
<g id="clust34" class="cluster">
<title>cluster_LookupsModule_exports</title>
<polygon fill="none" stroke="black" points="188,-352 188,-404 314,-404 314,-352 188,-352"/>
</g>
<g id="clust36" class="cluster">
<title>cluster_LookupsModule_providers</title>
<polygon fill="none" stroke="black" points="16,-352 16,-404 180,-404 180,-352 16,-352"/>
</g>
<g id="clust37" class="cluster">
<title>cluster_StoryModule</title>
<polygon fill="none" stroke="black" stroke-dasharray="1,5" points="692,-496 692,-564 962,-564 962,-496 692,-496"/>
</g>
<g id="clust40" class="cluster">
<title>cluster_StoryModule_exports</title>
<polygon fill="none" stroke="black" points="846,-504 846,-556 954,-556 954,-504 846,-504"/>
</g>
<g id="clust42" class="cluster">
<title>cluster_StoryModule_providers</title>
<polygon fill="none" stroke="black" points="700,-504 700,-556 838,-556 838,-504 700,-504"/>
</g>
<g id="clust43" class="cluster">
<title>cluster_UserModule</title>
<polygon fill="none" stroke="black" stroke-dasharray="1,5" points="372,-138 372,-206 632,-206 632,-138 372,-138"/>
</g>
<g id="clust46" class="cluster">
<title>cluster_UserModule_exports</title>
<polygon fill="none" stroke="black" points="520,-146 520,-198 624,-198 624,-146 520,-146"/>
</g>
<g id="clust48" class="cluster">
<title>cluster_UserModule_providers</title>
<polygon fill="none" stroke="black" points="380,-146 380,-198 512,-198 512,-146 380,-146"/>
</g>
<!-- AppLoggerModule -->
<g id="node1" class="node">
<title>AppLoggerModule</title>
<polygon fill="#8dd3c7" stroke="black" points="668.08,-331 665.08,-335 644.08,-335 641.08,-331 543.92,-331 543.92,-295 668.08,-295 668.08,-331"/>
<text text-anchor="middle" x="606" y="-308.8" font-family="Times,serif" font-size="14.00">AppLoggerModule</text>
</g>
<!-- ListingModule -->
<g id="node3" class="node">
<title>ListingModule</title>
<polygon fill="#8dd3c7" stroke="black" points="519.72,-396 516.72,-400 495.72,-400 492.72,-396 420.28,-396 420.28,-360 519.72,-360 519.72,-396"/>
<text text-anchor="middle" x="470" y="-373.8" font-family="Times,serif" font-size="14.00">ListingModule</text>
</g>
<!-- AppLoggerModule&#45;&gt;ListingModule -->
<g id="edge16" class="edge">
<title>AppLoggerModule&#45;&gt;ListingModule</title>
<path fill="none" stroke="black" d="M543.7,-319C524.59,-319 508.5,-319 508.5,-319 508.5,-319 508.5,-349.98 508.5,-349.98"/>
<polygon fill="black" stroke="black" points="505,-349.98 508.5,-359.98 512,-349.98 505,-349.98"/>
</g>
<!-- StoryModule -->
<g id="node5" class="node">
<title>StoryModule</title>
<polygon fill="#8dd3c7" stroke="black" points="620.88,-472 617.88,-476 596.88,-476 593.88,-472 531.12,-472 531.12,-436 620.88,-436 620.88,-472"/>
<text text-anchor="middle" x="576" y="-449.8" font-family="Times,serif" font-size="14.00">StoryModule</text>
</g>
<!-- AppLoggerModule&#45;&gt;StoryModule -->
<g id="edge26" class="edge">
<title>AppLoggerModule&#45;&gt;StoryModule</title>
<path fill="none" stroke="black" d="M582.45,-331.14C582.45,-331.14 582.45,-425.93 582.45,-425.93"/>
<polygon fill="black" stroke="black" points="578.95,-425.92 582.45,-435.93 585.95,-425.93 578.95,-425.92"/>
</g>
<!-- ApplicationModule -->
<g id="node7" class="node">
<title>ApplicationModule</title>
<polygon fill="#8dd3c7" stroke="black" points="463.65,-548 460.65,-552 439.65,-552 436.65,-548 338.35,-548 338.35,-512 463.65,-512 463.65,-548"/>
<text text-anchor="middle" x="401" y="-525.8" font-family="Times,serif" font-size="14.00">ApplicationModule</text>
</g>
<!-- AppLoggerModule&#45;&gt;ApplicationModule -->
<g id="edge1" class="edge">
<title>AppLoggerModule&#45;&gt;ApplicationModule</title>
<path fill="none" stroke="black" d="M644.49,-331.13C644.49,-383.28 644.49,-530 644.49,-530 644.49,-530 473.71,-530 473.71,-530"/>
<polygon fill="black" stroke="black" points="473.71,-526.5 463.71,-530 473.71,-533.5 473.71,-526.5"/>
</g>
<!-- AppLogger  -->
<g id="node8" class="node">
<title>AppLogger </title>
<polygon fill="#fb8072" stroke="black" points="1355.03,-266 1270.97,-266 1270.97,-230 1355.03,-230 1355.03,-266"/>
<text text-anchor="middle" x="1313" y="-243.8" font-family="Times,serif" font-size="14.00">AppLogger </text>
</g>
<!-- AppLoggerModule&#45;&gt;AppLogger  -->
<g id="edge7" class="edge">
<title>AppLoggerModule&#45;&gt;AppLogger </title>
<path fill="none" stroke="black" stroke-dasharray="5,2" d="M668.12,-319C840.64,-319 1313,-319 1313,-319 1313,-319 1313,-276.28 1313,-276.28"/>
<polygon fill="black" stroke="black" points="1316.5,-276.28 1313,-266.28 1309.5,-276.28 1316.5,-276.28"/>
</g>
<!-- DevModule -->
<g id="node2" class="node">
<title>DevModule</title>
<polygon fill="#8dd3c7" stroke="black" points="460.37,-266 457.37,-270 436.37,-270 433.37,-266 377.63,-266 377.63,-230 460.37,-230 460.37,-266"/>
<text text-anchor="middle" x="419" y="-243.8" font-family="Times,serif" font-size="14.00">DevModule</text>
</g>
<!-- DevModule&#45;&gt;ApplicationModule -->
<g id="edge2" class="edge">
<title>DevModule&#45;&gt;ApplicationModule</title>
<path fill="none" stroke="black" d="M377.55,-248C366.65,-248 357.87,-248 357.87,-248 357.87,-248 357.87,-501.93 357.87,-501.93"/>
<polygon fill="black" stroke="black" points="354.37,-501.93 357.87,-511.93 361.37,-501.93 354.37,-501.93"/>
</g>
<!-- ListingModule&#45;&gt;StoryModule -->
<g id="edge28" class="edge">
<title>ListingModule&#45;&gt;StoryModule</title>
<path fill="none" stroke="black" d="M519.7,-384C528.16,-384 534.28,-384 534.28,-384 534.28,-384 534.28,-425.97 534.28,-425.97"/>
<polygon fill="black" stroke="black" points="530.78,-425.97 534.28,-435.97 537.78,-425.97 530.78,-425.97"/>
</g>
<!-- ListingModule&#45;&gt;ApplicationModule -->
<g id="edge3" class="edge">
<title>ListingModule&#45;&gt;ApplicationModule</title>
<path fill="none" stroke="black" d="M446.45,-396.03C446.45,-396.03 446.45,-501.99 446.45,-501.99"/>
<polygon fill="black" stroke="black" points="442.95,-501.99 446.45,-511.99 449.95,-501.99 442.95,-501.99"/>
</g>
<!-- ListingService  -->
<g id="node17" class="node">
<title>ListingService </title>
<polygon fill="#fb8072" stroke="black" points="305.65,-472 204.35,-472 204.35,-436 305.65,-436 305.65,-472"/>
<text text-anchor="middle" x="255" y="-449.8" font-family="Times,serif" font-size="14.00">ListingService </text>
</g>
<!-- ListingModule&#45;&gt;ListingService  -->
<g id="edge20" class="edge">
<title>ListingModule&#45;&gt;ListingService </title>
<path fill="none" stroke="black" stroke-dasharray="5,2" d="M437.76,-396.03C437.76,-416.77 437.76,-448 437.76,-448 437.76,-448 315.91,-448 315.91,-448"/>
<polygon fill="black" stroke="black" points="315.91,-444.5 305.91,-448 315.91,-451.5 315.91,-444.5"/>
</g>
<!-- LookupsModule -->
<g id="node4" class="node">
<title>LookupsModule</title>
<polygon fill="#8dd3c7" stroke="black" points="486.05,-331 483.05,-335 462.05,-335 459.05,-331 377.95,-331 377.95,-295 486.05,-295 486.05,-331"/>
<text text-anchor="middle" x="432" y="-308.8" font-family="Times,serif" font-size="14.00">LookupsModule</text>
</g>
<!-- LookupsModule&#45;&gt;ListingModule -->
<g id="edge18" class="edge">
<title>LookupsModule&#45;&gt;ListingModule</title>
<path fill="none" stroke="black" d="M453.33,-331.11C453.33,-331.11 453.33,-349.99 453.33,-349.99"/>
<polygon fill="black" stroke="black" points="449.83,-349.99 453.33,-359.99 456.83,-349.99 449.83,-349.99"/>
</g>
<!-- LookupsModule&#45;&gt;StoryModule -->
<g id="edge29" class="edge">
<title>LookupsModule&#45;&gt;StoryModule</title>
<path fill="none" stroke="black" d="M486.3,-307C512.15,-307 537.51,-307 537.51,-307 537.51,-307 537.51,-425.97 537.51,-425.97"/>
<polygon fill="black" stroke="black" points="534.01,-425.97 537.51,-435.97 541.01,-425.97 534.01,-425.97"/>
</g>
<!-- LookupsModule&#45;&gt;ApplicationModule -->
<g id="edge4" class="edge">
<title>LookupsModule&#45;&gt;ApplicationModule</title>
<path fill="none" stroke="black" d="M406.17,-331.13C406.17,-331.13 406.17,-501.77 406.17,-501.77"/>
<polygon fill="black" stroke="black" points="402.67,-501.77 406.17,-511.77 409.67,-501.77 402.67,-501.77"/>
</g>
<!-- LookupsService  -->
<g id="node19" class="node">
<title>LookupsService </title>
<polygon fill="#fb8072" stroke="black" points="306.48,-396 195.52,-396 195.52,-360 306.48,-360 306.48,-396"/>
<text text-anchor="middle" x="251" y="-373.8" font-family="Times,serif" font-size="14.00">LookupsService </text>
</g>
<!-- LookupsModule&#45;&gt;LookupsService  -->
<g id="edge24" class="edge">
<title>LookupsModule&#45;&gt;LookupsService </title>
<path fill="none" stroke="black" stroke-dasharray="5,2" d="M391.95,-331.11C391.95,-350.34 391.95,-378 391.95,-378 391.95,-378 316.3,-378 316.3,-378"/>
<polygon fill="black" stroke="black" points="316.3,-374.5 306.3,-378 316.3,-381.5 316.3,-374.5"/>
</g>
<!-- StoryModule&#45;&gt;ApplicationModule -->
<g id="edge5" class="edge">
<title>StoryModule&#45;&gt;ApplicationModule</title>
<path fill="none" stroke="black" d="M531,-460C496.63,-460 455.14,-460 455.14,-460 455.14,-460 455.14,-501.97 455.14,-501.97"/>
<polygon fill="black" stroke="black" points="451.64,-501.97 455.14,-511.97 458.64,-501.97 451.64,-501.97"/>
</g>
<!-- StoryService  -->
<g id="node21" class="node">
<title>StoryService </title>
<polygon fill="#fb8072" stroke="black" points="945.81,-548 854.19,-548 854.19,-512 945.81,-512 945.81,-548"/>
<text text-anchor="middle" x="900" y="-525.8" font-family="Times,serif" font-size="14.00">StoryService </text>
</g>
<!-- StoryModule&#45;&gt;StoryService  -->
<g id="edge31" class="edge">
<title>StoryModule&#45;&gt;StoryService </title>
<path fill="none" stroke="black" stroke-dasharray="5,2" d="M621.03,-460C707.42,-460 887.97,-460 887.97,-460 887.97,-460 887.97,-501.97 887.97,-501.97"/>
<polygon fill="black" stroke="black" points="884.47,-501.97 887.97,-511.97 891.47,-501.97 884.47,-501.97"/>
</g>
<!-- UserModule -->
<g id="node6" class="node">
<title>UserModule</title>
<polygon fill="#8dd3c7" stroke="black" points="563.98,-266 560.98,-270 539.98,-270 536.98,-266 478.02,-266 478.02,-230 563.98,-230 563.98,-266"/>
<text text-anchor="middle" x="521" y="-243.8" font-family="Times,serif" font-size="14.00">UserModule</text>
</g>
<!-- UserModule&#45;&gt;ListingModule -->
<g id="edge19" class="edge">
<title>UserModule&#45;&gt;ListingModule</title>
<path fill="none" stroke="black" d="M497.39,-266.08C497.39,-266.08 497.39,-349.66 497.39,-349.66"/>
<polygon fill="black" stroke="black" points="493.89,-349.66 497.39,-359.66 500.89,-349.66 493.89,-349.66"/>
</g>
<!-- UserModule&#45;&gt;LookupsModule -->
<g id="edge23" class="edge">
<title>UserModule&#45;&gt;LookupsModule</title>
<path fill="none" stroke="black" d="M482.14,-266.11C482.14,-266.11 482.14,-284.99 482.14,-284.99"/>
<polygon fill="black" stroke="black" points="478.64,-284.99 482.14,-294.99 485.64,-284.99 478.64,-284.99"/>
</g>
<!-- UserModule&#45;&gt;StoryModule -->
<g id="edge30" class="edge">
<title>UserModule&#45;&gt;StoryModule</title>
<path fill="none" stroke="black" d="M540.73,-266.28C540.73,-266.28 540.73,-425.76 540.73,-425.76"/>
<polygon fill="black" stroke="black" points="537.23,-425.76 540.73,-435.76 544.23,-425.76 537.23,-425.76"/>
</g>
<!-- UserModule&#45;&gt;ApplicationModule -->
<g id="edge6" class="edge">
<title>UserModule&#45;&gt;ApplicationModule</title>
<path fill="none" stroke="black" d="M525.33,-266.34C525.33,-327.55 525.33,-521 525.33,-521 525.33,-521 473.9,-521 473.9,-521"/>
<polygon fill="black" stroke="black" points="473.9,-517.5 463.9,-521 473.9,-524.5 473.9,-517.5"/>
</g>
<!-- UserService  -->
<g id="node23" class="node">
<title>UserService </title>
<polygon fill="#fb8072" stroke="black" points="615.9,-190 528.1,-190 528.1,-154 615.9,-154 615.9,-190"/>
<text text-anchor="middle" x="572" y="-167.8" font-family="Times,serif" font-size="14.00">UserService </text>
</g>
<!-- UserModule&#45;&gt;UserService  -->
<g id="edge34" class="edge">
<title>UserModule&#45;&gt;UserService </title>
<path fill="none" stroke="black" stroke-dasharray="5,2" d="M546.02,-229.99C546.02,-229.99 546.02,-200.15 546.02,-200.15"/>
<polygon fill="black" stroke="black" points="549.52,-200.15 546.02,-190.15 542.52,-200.15 549.52,-200.15"/>
</g>
<!-- AppLogger -->
<g id="node9" class="node">
<title>AppLogger</title>
<ellipse fill="#fdb462" stroke="black" cx="1191" cy="-248" rx="55.6" ry="18"/>
<text text-anchor="middle" x="1191" y="-243.8" font-family="Times,serif" font-size="14.00">AppLogger</text>
</g>
<!-- AppLogger&#45;&gt;AppLoggerModule -->
<g id="edge8" class="edge">
<title>AppLogger&#45;&gt;AppLoggerModule</title>
<path fill="none" stroke="black" d="M1191,-266.02C1191,-283.37 1191,-307 1191,-307 1191,-307 678.05,-307 678.05,-307"/>
<polygon fill="black" stroke="black" points="678.05,-303.5 668.05,-307 678.05,-310.5 678.05,-303.5"/>
</g>
<!-- FireBase  -->
<g id="node10" class="node">
<title>FireBase </title>
<polygon fill="#fb8072" stroke="black" points="1008.76,-266 939.24,-266 939.24,-230 1008.76,-230 1008.76,-266"/>
<text text-anchor="middle" x="974" y="-243.8" font-family="Times,serif" font-size="14.00">FireBase </text>
</g>
<!-- MailManager  -->
<g id="node11" class="node">
<title>MailManager </title>
<polygon fill="#fb8072" stroke="black" points="921.69,-266 826.31,-266 826.31,-230 921.69,-230 921.69,-266"/>
<text text-anchor="middle" x="874" y="-243.8" font-family="Times,serif" font-size="14.00">MailManager </text>
</g>
<!-- PrismaService  -->
<g id="node12" class="node">
<title>PrismaService </title>
<polygon fill="#fb8072" stroke="black" points="808.36,-266 707.64,-266 707.64,-230 808.36,-230 808.36,-266"/>
<text text-anchor="middle" x="758" y="-243.8" font-family="Times,serif" font-size="14.00">PrismaService </text>
</g>
<!-- CoreModule -->
<g id="node13" class="node">
<title>CoreModule</title>
<polygon fill="#8dd3c7" stroke="black" points="966.26,-190 963.26,-194 942.26,-194 939.26,-190 879.74,-190 879.74,-154 966.26,-154 966.26,-190"/>
<text text-anchor="middle" x="923" y="-167.8" font-family="Times,serif" font-size="14.00">CoreModule</text>
</g>
<!-- CoreModule&#45;&gt;DevModule -->
<g id="edge15" class="edge">
<title>CoreModule&#45;&gt;DevModule</title>
<path fill="none" stroke="black" d="M890.18,-190.24C890.18,-197.43 890.18,-204 890.18,-204 890.18,-204 424.11,-204 424.11,-204 424.11,-204 424.11,-219.85 424.11,-219.85"/>
<polygon fill="black" stroke="black" points="420.61,-219.85 424.11,-229.85 427.61,-219.85 420.61,-219.85"/>
</g>
<!-- CoreModule&#45;&gt;ListingModule -->
<g id="edge17" class="edge">
<title>CoreModule&#45;&gt;ListingModule</title>
<path fill="none" stroke="black" d="M927.69,-190.1C927.69,-239.33 927.69,-372 927.69,-372 927.69,-372 529.85,-372 529.85,-372"/>
<polygon fill="black" stroke="black" points="529.85,-368.5 519.85,-372 529.85,-375.5 529.85,-368.5"/>
</g>
<!-- CoreModule&#45;&gt;LookupsModule -->
<g id="edge22" class="edge">
<title>CoreModule&#45;&gt;LookupsModule</title>
<path fill="none" stroke="black" d="M900.73,-190.04C900.73,-202.56 900.73,-217 900.73,-217 900.73,-217 469.22,-217 469.22,-217 469.22,-217 469.22,-284.94 469.22,-284.94"/>
<polygon fill="black" stroke="black" points="465.72,-284.94 469.22,-294.94 472.72,-284.94 465.72,-284.94"/>
</g>
<!-- CoreModule&#45;&gt;StoryModule -->
<g id="edge27" class="edge">
<title>CoreModule&#45;&gt;StoryModule</title>
<path fill="none" stroke="black" d="M933.53,-190.11C933.53,-251.51 933.53,-448 933.53,-448 933.53,-448 630.92,-448 630.92,-448"/>
<polygon fill="black" stroke="black" points="630.92,-444.5 620.92,-448 630.92,-451.5 630.92,-444.5"/>
</g>
<!-- CoreModule&#45;&gt;UserModule -->
<g id="edge33" class="edge">
<title>CoreModule&#45;&gt;UserModule</title>
<path fill="none" stroke="black" d="M879.61,-172C811.69,-172 687.93,-172 687.93,-172 687.93,-172 687.93,-248 687.93,-248 687.93,-248 573.99,-248 573.99,-248"/>
<polygon fill="black" stroke="black" points="573.99,-244.5 563.99,-248 573.99,-251.5 573.99,-244.5"/>
</g>
<!-- CoreModule&#45;&gt;FireBase  -->
<g id="edge9" class="edge">
<title>CoreModule&#45;&gt;FireBase </title>
<path fill="none" stroke="black" stroke-dasharray="5,2" d="M952.88,-190.01C952.88,-190.01 952.88,-219.85 952.88,-219.85"/>
<polygon fill="black" stroke="black" points="949.38,-219.85 952.88,-229.85 956.38,-219.85 949.38,-219.85"/>
</g>
<!-- CoreModule&#45;&gt;MailManager  -->
<g id="edge10" class="edge">
<title>CoreModule&#45;&gt;MailManager </title>
<path fill="none" stroke="black" stroke-dasharray="5,2" d="M911.29,-190.01C911.29,-190.01 911.29,-219.85 911.29,-219.85"/>
<polygon fill="black" stroke="black" points="907.79,-219.85 911.29,-229.85 914.79,-219.85 907.79,-219.85"/>
</g>
<!-- CoreModule&#45;&gt;PrismaService  -->
<g id="edge11" class="edge">
<title>CoreModule&#45;&gt;PrismaService </title>
<path fill="none" stroke="black" stroke-dasharray="5,2" d="M879.7,-181C830.86,-181 758.18,-181 758.18,-181 758.18,-181 758.18,-219.69 758.18,-219.69"/>
<polygon fill="black" stroke="black" points="754.68,-219.69 758.18,-229.69 761.68,-219.69 754.68,-219.69"/>
</g>
<!-- FireBase -->
<g id="node14" class="node">
<title>FireBase</title>
<ellipse fill="#fdb462" stroke="black" cx="1050" cy="-104" rx="45.22" ry="18"/>
<text text-anchor="middle" x="1050" y="-99.8" font-family="Times,serif" font-size="14.00">FireBase</text>
</g>
<!-- FireBase&#45;&gt;CoreModule -->
<g id="edge12" class="edge">
<title>FireBase&#45;&gt;CoreModule</title>
<path fill="none" stroke="black" d="M1051.99,-122.22C1051.99,-142.37 1051.99,-172 1051.99,-172 1051.99,-172 976.31,-172 976.31,-172"/>
<polygon fill="black" stroke="black" points="976.31,-168.5 966.31,-172 976.31,-175.5 976.31,-168.5"/>
</g>
<!-- MailManager -->
<g id="node15" class="node">
<title>MailManager</title>
<ellipse fill="#fdb462" stroke="black" cx="923" cy="-104" rx="63.68" ry="18"/>
<text text-anchor="middle" x="923" y="-99.8" font-family="Times,serif" font-size="14.00">MailManager</text>
</g>
<!-- MailManager&#45;&gt;CoreModule -->
<g id="edge13" class="edge">
<title>MailManager&#45;&gt;CoreModule</title>
<path fill="none" stroke="black" d="M923,-122.22C923,-122.22 923,-143.73 923,-143.73"/>
<polygon fill="black" stroke="black" points="919.5,-143.73 923,-153.73 926.5,-143.73 919.5,-143.73"/>
</g>
<!-- PrismaService -->
<g id="node16" class="node">
<title>PrismaService</title>
<ellipse fill="#fdb462" stroke="black" cx="775" cy="-104" rx="66.63" ry="18"/>
<text text-anchor="middle" x="775" y="-99.8" font-family="Times,serif" font-size="14.00">PrismaService</text>
</g>
<!-- PrismaService&#45;&gt;CoreModule -->
<g id="edge14" class="edge">
<title>PrismaService&#45;&gt;CoreModule</title>
<path fill="none" stroke="black" d="M833.98,-112.71C833.98,-129.12 833.98,-163 833.98,-163 833.98,-163 869.54,-163 869.54,-163"/>
<polygon fill="black" stroke="black" points="869.54,-166.5 879.54,-163 869.54,-159.5 869.54,-166.5"/>
</g>
<!-- ListingService -->
<g id="node18" class="node">
<title>ListingService</title>
<ellipse fill="#fdb462" stroke="black" cx="113" cy="-454" rx="67.21" ry="18"/>
<text text-anchor="middle" x="113" y="-449.8" font-family="Times,serif" font-size="14.00">ListingService</text>
</g>
<!-- ListingService&#45;&gt;ListingModule -->
<g id="edge21" class="edge">
<title>ListingService&#45;&gt;ListingModule</title>
<path fill="none" stroke="black" d="M176.07,-447.38C176.07,-436.49 176.07,-416 176.07,-416 176.07,-416 429.08,-416 429.08,-416 429.08,-416 429.08,-406.11 429.08,-406.11"/>
<polygon fill="black" stroke="black" points="432.58,-406.11 429.08,-396.11 425.58,-406.11 432.58,-406.11"/>
</g>
<!-- LookupsService -->
<g id="node20" class="node">
<title>LookupsService</title>
<ellipse fill="#fdb462" stroke="black" cx="98" cy="-378" rx="73.58" ry="18"/>
<text text-anchor="middle" x="98" y="-373.8" font-family="Times,serif" font-size="14.00">LookupsService</text>
</g>
<!-- LookupsService&#45;&gt;LookupsModule -->
<g id="edge25" class="edge">
<title>LookupsService&#45;&gt;LookupsModule</title>
<path fill="none" stroke="black" d="M98,-359.89C98,-340.66 98,-313 98,-313 98,-313 367.59,-313 367.59,-313"/>
<polygon fill="black" stroke="black" points="367.59,-316.5 377.59,-313 367.59,-309.5 367.59,-316.5"/>
</g>
<!-- StoryService -->
<g id="node22" class="node">
<title>StoryService</title>
<ellipse fill="#fdb462" stroke="black" cx="769" cy="-530" rx="60.83" ry="18"/>
<text text-anchor="middle" x="769" y="-525.8" font-family="Times,serif" font-size="14.00">StoryService</text>
</g>
<!-- StoryService&#45;&gt;StoryModule -->
<g id="edge32" class="edge">
<title>StoryService&#45;&gt;StoryModule</title>
<path fill="none" stroke="black" d="M716.01,-539C658.87,-539 576,-539 576,-539 576,-539 576,-482.03 576,-482.03"/>
<polygon fill="black" stroke="black" points="579.5,-482.03 576,-472.03 572.5,-482.03 579.5,-482.03"/>
</g>
<!-- UserService -->
<g id="node24" class="node">
<title>UserService</title>
<ellipse fill="#fdb462" stroke="black" cx="446" cy="-172" rx="58.44" ry="18"/>
<text text-anchor="middle" x="446" y="-167.8" font-family="Times,serif" font-size="14.00">UserService</text>
</g>
<!-- UserService&#45;&gt;UserModule -->
<g id="edge35" class="edge">
<title>UserService&#45;&gt;UserModule</title>
<path fill="none" stroke="black" d="M491.12,-183.54C491.12,-183.54 491.12,-219.83 491.12,-219.83"/>
<polygon fill="black" stroke="black" points="487.62,-219.83 491.12,-229.83 494.62,-219.83 487.62,-219.83"/>
</g>
</g>
</svg>
